<svg width="131" height="44" fill="none" xmlns="http://www.w3.org/2000/svg"><g clip-path="url(#clip0)"><path d="M120.568 0H10.438c-.402 0-.798 0-1.199.002-.335.002-.667.009-1.006.014A14.4 14.4 0 006.04.21 7.05 7.05 0 00.897 3.98a7.286 7.286 0 00-.684 2.094 14.36 14.36 0 00-.196 2.202C.007 8.613.005 8.95 0 9.289v25.425c.005.342.006.673.017 1.014.008.739.074 1.475.196 2.203.12.729.35 1.435.684 2.094a6.827 6.827 0 001.29 1.776 6.871 6.871 0 001.772 1.297 7.314 7.314 0 002.08.694c.726.12 1.46.184 2.194.194.339.007.671.012 1.006.012.4.002.797.002 1.199.002h110.13c.393 0 .793 0 1.187-.002.333 0 .675-.005 1.009-.012.734-.01 1.465-.074 2.189-.194a7.42 7.42 0 002.089-.694 6.878 6.878 0 001.771-1.297 7.05 7.05 0 001.293-1.776c.331-.66.559-1.366.678-2.094.122-.728.19-1.464.203-2.203.004-.341.004-.672.004-1.014.009-.4.009-.797.009-1.203V10.49c0-.403 0-.803-.009-1.201 0-.338 0-.676-.004-1.013a14.913 14.913 0 00-.203-2.203 7.282 7.282 0 00-.678-2.093A7.09 7.09 0 00127.042.9a7.377 7.377 0 00-2.089-.69 14.195 14.195 0 00-2.189-.194c-.334-.005-.676-.012-1.009-.014C121.361 0 120.961 0 120.568 0z" fill="#000"/><path d="M27.364 21.878c.013-.954.265-1.89.734-2.721a5.65 5.65 0 011.95-2.028 5.775 5.775 0 00-1.982-1.774 5.746 5.746 0 00-2.562-.694c-1.912-.202-3.765 1.15-4.74 1.15-.992 0-2.492-1.13-4.107-1.097a6.029 6.029 0 00-2.956.886 6.067 6.067 0 00-2.136 2.234c-2.202 3.83-.56 9.46 1.55 12.556 1.054 1.516 2.288 3.21 3.901 3.15 1.58-.066 2.17-1.012 4.075-1.012 1.888 0 2.442 1.011 4.088.973 1.695-.027 2.762-1.523 3.78-3.053a12.56 12.56 0 001.729-3.538 5.45 5.45 0 01-2.416-2.013 5.49 5.49 0 01-.907-3.019zm-3.109-9.254a5.591 5.591 0 001.269-3.992 5.635 5.635 0 00-3.652 1.898 5.31 5.31 0 00-1.302 3.845 4.648 4.648 0 003.685-1.75zm22.055 17.23h-5.183l-1.244 3.692h-2.195l4.908-13.66h2.28l4.909 13.66h-2.233l-1.243-3.692zm-4.646-1.704h4.107l-2.024-5.992h-.057l-2.026 5.992zm18.721.417c0 3.095-1.649 5.083-4.137 5.083a3.348 3.348 0 01-1.808-.421 3.368 3.368 0 01-1.31-1.322h-.047v4.933h-2.035V23.587h1.97v1.656h.037a3.524 3.524 0 011.336-1.318 3.503 3.503 0 011.82-.443c2.515 0 4.174 1.998 4.174 5.085zm-2.092 0c0-2.017-1.037-3.342-2.619-3.342-1.554 0-2.6 1.353-2.6 3.342 0 2.006 1.046 3.35 2.6 3.35 1.582 0 2.62-1.316 2.62-3.35zm13.001 0c0 3.095-1.65 5.083-4.137 5.083a3.347 3.347 0 01-1.808-.421 3.368 3.368 0 01-1.31-1.322h-.047v4.933h-2.035V23.587h1.97v1.656h.037a3.524 3.524 0 011.336-1.318 3.502 3.502 0 011.82-.443c2.515 0 4.174 1.998 4.174 5.085zm-2.092 0c0-2.017-1.037-3.342-2.619-3.342-1.554 0-2.6 1.353-2.6 3.342 0 2.006 1.046 3.35 2.6 3.35 1.582 0 2.62-1.316 2.62-3.35zm9.301 1.173c.15 1.354 1.46 2.244 3.25 2.244 1.714 0 2.948-.89 2.948-2.111 0-1.06-.744-1.695-2.506-2.13l-1.762-.427c-2.496-.606-3.655-1.779-3.655-3.682 0-2.357 2.044-3.976 4.946-3.976 2.873 0 4.843 1.619 4.909 3.976h-2.054c-.123-1.363-1.244-2.186-2.883-2.186s-2.76.832-2.76 2.044c0 .966.716 1.534 2.468 1.969l1.498.37c2.79.662 3.947 1.788 3.947 3.786 0 2.556-2.025 4.156-5.247 4.156-3.015 0-5.05-1.563-5.182-4.033h2.083zm12.739-8.51v2.357h1.884v1.618h-1.884v5.49c0 .854.377 1.251 1.206 1.251.223-.004.447-.02.669-.047v1.609c-.373.07-.751.102-1.13.095-2.007 0-2.79-.758-2.79-2.69v-5.708h-1.44v-1.618h1.44V21.23h2.045zm2.975 7.337c0-3.134 1.837-5.103 4.7-5.103 2.874 0 4.702 1.97 4.702 5.103 0 3.142-1.818 5.102-4.701 5.102-2.883 0-4.701-1.96-4.701-5.102zm7.33 0c0-2.15-.981-3.419-2.63-3.419-1.648 0-2.628 1.279-2.628 3.419 0 2.158.98 3.417 2.629 3.417 1.648 0 2.629-1.26 2.629-3.417zm3.75-4.98h1.94v1.695h.047c.132-.53.44-.998.874-1.325a2.36 2.36 0 011.51-.475c.235 0 .469.025.697.077v1.912a2.83 2.83 0 00-.914-.124 2.039 2.039 0 00-1.584.656 2.068 2.068 0 00-.536 1.636v5.907h-2.034v-9.96zm14.448 7.033c-.273 1.808-2.026 3.05-4.267 3.05-2.884 0-4.673-1.942-4.673-5.056 0-3.124 1.799-5.15 4.587-5.15 2.742 0 4.467 1.893 4.467 4.913v.7h-7.001v.123a2.604 2.604 0 001.597 2.63c.339.14.704.205 1.07.191.48.046.963-.066 1.375-.319a2.25 2.25 0 00.914-1.081h1.931zm-6.877-2.972h4.955a2.403 2.403 0 00-.666-1.797 2.385 2.385 0 00-1.765-.73 2.494 2.494 0 00-1.786.735 2.523 2.523 0 00-.738 1.792zm-72.65-15.269h.874a1.09 1.09 0 001.12-.609c.067-.136.105-.285.111-.438 0-.605-.453-.996-1.221-.996a1.16 1.16 0 00-1.177.586 1.174 1.174 0 00-.142.442h-.959a2.064 2.064 0 01.739-1.464 2.046 2.046 0 011.57-.455c1.285 0 2.191.723 2.191 1.764a1.53 1.53 0 01-.329.962 1.516 1.516 0 01-.858.54v.077a1.523 1.523 0 011.453 1.587 2.202 2.202 0 01-.811 1.491 2.177 2.177 0 01-1.628.46 2.16 2.16 0 01-1.637-.447 2.178 2.178 0 01-.817-1.495h.974c.059.628.633 1.033 1.48 1.033.846 0 1.4-.455 1.4-1.096 0-.65-.522-1.051-1.431-1.051h-.902v-.891zm4.479 2.388c0-.892.661-1.406 1.833-1.479l1.335-.077v-.428c0-.523-.343-.818-1.009-.818-.543 0-.918.2-1.027.55h-.942c.1-.85.897-1.396 2.015-1.396 1.236 0 1.933.618 1.933 1.664v3.385h-.937v-.697h-.077a1.66 1.66 0 01-1.481.778 1.48 1.48 0 01-1.149-.375 1.494 1.494 0 01-.494-1.107zm3.168-.423v-.415l-1.203.078c-.68.045-.987.277-.987.714 0 .446.385.705.914.705a1.156 1.156 0 001.154-.634c.07-.14.112-.292.122-.448zm3.552-2.307v4.13h-.973v-4.953h3.246v.823h-2.273zm8.169 1.652c0 1.573-.792 2.56-2.037 2.56a1.6 1.6 0 01-1.517-.832h-.077v2.397h-.973v-6.6h.937v.819h.073a1.717 1.717 0 011.547-.9c1.255 0 2.047.982 2.047 2.556zm-1 0c0-1.046-.494-1.679-1.318-1.679-.819 0-1.331.646-1.331 1.683 0 1.032.512 1.678 1.327 1.678.828 0 1.321-.632 1.321-1.682zm2.296 4.253V17.1c.105.013.21.02.317.018a.84.84 0 00.892-.691l.072-.241-1.784-4.972h1.06l1.235 3.935h.077l1.232-3.935h1.032l-1.838 5.158c-.421 1.205-.888 1.592-1.892 1.592a4.33 4.33 0 01-.403-.022zm4.89-3.18h.969c.095.437.502.664 1.072.664.648 0 1.046-.287 1.046-.732 0-.478-.357-.706-1.046-.706h-.737v-.759h.725c.587 0 .887-.227.887-.641 0-.364-.29-.642-.888-.642-.544 0-.941.232-1.004.623h-.938c.07-.449.313-.853.676-1.124a1.721 1.721 0 011.266-.326c1.172 0 1.843.532 1.843 1.369a1.02 1.02 0 01-.779 1.014v.077a1.105 1.105 0 01.965 1.115c0 .941-.798 1.564-2.016 1.564-1.076 0-1.95-.495-2.04-1.496zm5.458 1.406v-4.954h.964v3.407h.077l2.272-3.407h.964v4.954h-.964v-3.426h-.073l-2.276 3.425h-.964zm9.59-4.131h-1.553v4.13h-.974v-4.13H76.74v-.823h4.078v.823zm5.24 2.793c-.133.453-.42.844-.81 1.106-.39.262-.86.378-1.327.327a2.23 2.23 0 01-1.728-.749 2.253 2.253 0 01-.55-1.807 2.296 2.296 0 01.55-1.816 2.274 2.274 0 011.723-.772c1.372 0 2.2.941 2.2 2.497v.34h-3.48v.056a1.314 1.314 0 00.784 1.313 1.3 1.3 0 00.529.106 1.176 1.176 0 001.171-.6h.938zm-3.422-1.596h2.488a1.2 1.2 0 00-.728-1.192 1.184 1.184 0 00-.484-.091 1.254 1.254 0 00-1.184.79 1.27 1.27 0 00-.092.493zm7.546-2.02h2.223c.964 0 1.53.491 1.53 1.26a1.067 1.067 0 01-.833 1.046v.077a1.134 1.134 0 011.054 1.142c0 .864-.647 1.428-1.729 1.428h-2.245v-4.953zm.965.75v1.283h.964c.588 0 .869-.227.869-.646 0-.386-.245-.636-.761-.636h-1.073zm0 2.002v1.451h1.153c.575 0 .883-.255.883-.723 0-.496-.348-.728-1.005-.728h-1.032z" fill="#fff"/></g><defs><clipPath id="clip0"><path fill="#fff" d="M0 0h131v44H0z"/></clipPath></defs></svg>