<svg width="47" height="13" fill="none" xmlns="http://www.w3.org/2000/svg"><g filter="url(#filter0_b)"><path fill-rule="evenodd" clip-rule="evenodd" d="M47 12.997c-1.712 0-3.425.008-5.137-.01-1.639-.018-3.473-.043-5.069-.645-1.722-.65-2.863-1.787-4.01-3.124-.827-.962-2.45-3.015-3.24-4.006-.647-.812-1.913-2.418-2.605-3.195C26.07 1.039 24.994 0 23.5 0s-2.569 1.04-3.438 2.016c-.692.776-1.958 2.383-2.605 3.195-.79.991-2.412 3.044-3.24 4.006-1.149 1.338-2.288 2.474-4.01 3.124-1.596.6-3.43.627-5.069.645-1.713.018-3.425.01-5.137.01" fill="#F9F9F9" fill-opacity=".78"/></g><defs><filter id="filter0_b" x="-54.366" y="-54.365" width="155.731" height="121.73" filterUnits="userSpaceOnUse" color-interpolation-filters="sRGB"><feFlood flood-opacity="0" result="BackgroundImageFix"/><feGaussianBlur in="BackgroundImage" stdDeviation="27.183"/><feComposite in2="SourceAlpha" operator="in" result="effect1_backgroundBlur"/><feBlend in="SourceGraphic" in2="effect1_backgroundBlur" result="shape"/></filter></defs></svg>