<svg width="24" height="24" fill="none" xmlns="http://www.w3.org/2000/svg"><g clip-path="url(#clip0)"><path fill-rule="evenodd" clip-rule="evenodd" d="M11 24c6.075 0 11-4.925 11-11S17.075 2 11 2 0 6.925 0 13s4.925 11 11 11zM9 10.5a1.5 1.5 0 11-3 0 1.5 1.5 0 013 0zm7 0a1.5 1.5 0 11-3 0 1.5 1.5 0 013 0z" fill="#28D"/><path d="M7.245 15.397a.75.75 0 10-1.278.786l1.278-.786zm8.794.775a.75.75 0 10-1.29-.764l1.29.764zm-9.433-.382c-.639.393-.639.394-.638.394l.001.002.002.004a1.282 1.282 0 00.025.038l.062.09c.052.073.128.171.227.288.197.231.493.535.896.84.81.614 2.047 1.229 3.762 1.283l.047-1.5c-1.358-.042-2.302-.522-2.903-.978a4.24 4.24 0 01-.661-.62 2.888 2.888 0 01-.184-.238l.001.002.001.001-.638.394zm4.337 2.94c1.743.054 3.016-.57 3.85-1.216.413-.32.717-.644.92-.892a4.615 4.615 0 00.297-.403l.02-.03.005-.01.003-.004v-.001c.001-.001.001-.002-.644-.384l-.645-.382v-.002l.002-.001c0-.001 0-.001 0 0l-.005.008-.034.05a3.126 3.126 0 01-.157.207 4.28 4.28 0 01-.681.658c-.612.474-1.553.944-2.884.902l-.047 1.5z" fill="#fff"/><path d="M21.75 1a1.75 1.75 0 10-3.5 0v1.25H17a1.75 1.75 0 100 3.5h1.25V7a1.75 1.75 0 103.5 0V5.75H23a1.75 1.75 0 100-3.5h-1.25V1z" fill="#28D" stroke="#fff" stroke-width="1.5" stroke-linecap="round" stroke-linejoin="round"/></g><defs><clipPath id="clip0"><path fill="#fff" d="M0 0h24v24H0z"/></clipPath></defs></svg>