<svg width="24" height="24" fill="none" xmlns="http://www.w3.org/2000/svg"><path d="M10.566.51a2.271 2.271 0 012.868 0l1.223 1.008a2.261 2.261 0 001.613.503l1.607-.126c1.084-.084 2.07.603 2.32 1.618l.372 1.506a2.12 2.12 0 00.997 1.317l1.377.804c.93.543 1.306 1.655.887 2.618l-.622 1.428a2.034 2.034 0 000 1.628l.622 1.428c.419.963.042 2.075-.887 2.618l-1.377.804a2.12 2.12 0 00-.997 1.317l-.371 1.506c-.251 1.015-1.237 1.703-2.321 1.618l-1.607-.126a2.262 2.262 0 00-1.613.503l-1.223 1.008c-.825.68-2.043.68-2.868 0l-1.223-1.008a2.262 2.262 0 00-1.613-.503l-1.607.126c-1.084.084-2.07-.603-2.32-1.618L3.43 18.98a2.12 2.12 0 00-.997-1.317l-1.377-.804c-.93-.543-1.306-1.655-.887-2.618l.622-1.428a2.033 2.033 0 000-1.628L.17 9.758c-.419-.963-.042-2.075.887-2.618l1.377-.804a2.12 2.12 0 00.997-1.317l.371-1.506c.251-1.015 1.237-1.702 2.321-1.618l1.607.126a2.262 2.262 0 001.613-.503L10.566.51z" fill="#6FCF97"/><path d="M8 12.353L11.2 15l4.8-5" stroke="#fff" stroke-width="2" stroke-linecap="round" stroke-linejoin="round"/></svg>