<svg width="24" height="24" fill="none" xmlns="http://www.w3.org/2000/svg"><rect width="24" height="24" rx="10" fill="#fff"/><path fill-rule="evenodd" clip-rule="evenodd" d="M11.965 3.974a2.278 2.278 0 00-2.278 2.278v6.265a2.278 2.278 0 004.556 0V6.252a2.278 2.278 0 00-2.278-2.278zM8.263 10.81a.854.854 0 10-1.708 0v1.84a5.412 5.412 0 004.556 5.343v1.075H9.622a.854.854 0 000 1.709h4.687a.854.854 0 000-1.709h-1.49v-1.075a5.412 5.412 0 004.557-5.344v-1.84a.854.854 0 10-1.709 0v1.84a3.702 3.702 0 01-7.404 0v-1.84z" fill="#333"/><path d="M19.43 15.221l-.002-.001L6.9 3.83s0 0 0 0a1.354 1.354 0 00-1.83 1.997h0l.002.001L17.6 17.218s0 0 0 0a1.354 1.354 0 001.83-1.997z" fill="#FF6D6D" stroke="#fff" stroke-linecap="round"/></svg>