<svg width="25" height="24" fill="none" xmlns="http://www.w3.org/2000/svg"><path fill-rule="evenodd" clip-rule="evenodd" d="M18.325 17.763a4.293 4.293 0 01-3.166 1.385H13.66v2.538h3.969c.636 0 1.16.522 1.16 1.157 0 .634-.524 1.157-1.16 1.157H7.333a1.165 1.165 0 01-1.161-1.157c0-.635.524-1.157 1.16-1.157h4.007v-2.538H9.841c-2.359 0-4.306-1.904-4.306-4.293v-1.082a.75.75 0 01.75-.747H9.13a.75.75 0 00.749-.746v-.784a.75.75 0 00-.749-.746H6.284a.75.75 0 01-.749-.747v-1.12a.75.75 0 01.75-.746h.983l11.057 9.626zm.636-.892L8.928 8.137h.202a.75.75 0 00.749-.747v-.783a.678.678 0 00-.01-.12l9.596 8.354v.014c0 .726-.182 1.413-.505 2.016zm.504-3.476L6.265 1.903A4.299 4.299 0 019.84 0h5.318c2.359 0 4.306 1.904 4.306 4.292v9.103zM5.539 5.185a.743.743 0 01-.004-.071v-.822c0-.481.08-.946.228-1.38L9.15 5.86H6.313l-.774-.674z" fill="#8598A7"/><path fill-rule="evenodd" clip-rule="evenodd" d="M2.176.99A1.031 1.031 0 013.633.928L23.59 18.302a1.031 1.031 0 01-1.393 1.52L2.239 2.449A1.031 1.031 0 012.176.991z" fill="#FF6D6D"/></svg>