<svg width="24" height="24" fill="none" xmlns="http://www.w3.org/2000/svg"><path fill-rule="evenodd" clip-rule="evenodd" d="M22 12c0 5.523-4.477 10-10 10S2 17.523 2 12 6.477 2 12 2s10 4.477 10 10zm-13.182-.91a1.364 1.364 0 100-2.726 1.364 1.364 0 000 2.727zm6.364 0a1.364 1.364 0 100-2.726 1.364 1.364 0 000 2.727zm-7.818 3.69a.682.682 0 111.202-.643c.465.637 1.68 1.707 3.472 1.707 1.844 0 2.978-1.113 3.357-1.729a.634.634 0 01.028-.047l.01-.019h.002a.68.68 0 111.062.852c-.616.853-2.214 2.316-4.46 2.316-2.376 0-4.11-1.622-4.678-2.433l.005-.003z" fill="#8598A7"/></svg>