<svg width="20" height="22" fill="none" xmlns="http://www.w3.org/2000/svg"><path d="M10.029 21.977c5.424 0 9.916-4.491 9.916-9.916 0-4.783-3.49-8.837-8.04-9.731V.95c0-.69-.476-.875-1.001-.496L7.803 2.622c-.448.31-.457.777 0 1.098l3.091 2.178c.535.389 1.011.204 1.011-.496v-1.39c3.675.836 6.377 4.112 6.377 8.05a8.223 8.223 0 01-8.253 8.262 8.225 8.225 0 01-8.263-8.263 8.21 8.21 0 013.422-6.678c.398-.302.524-.759.281-1.167-.243-.399-.777-.506-1.205-.175C1.766 5.859.113 8.795.113 12.06c0 5.425 4.5 9.916 9.916 9.916zm-2.887-5.93c.379 0 .622-.263.622-.67V9.241c0-.496-.253-.758-.69-.758-.273 0-.467.087-.807.32l-1.342.905c-.224.165-.33.34-.33.563 0 .321.252.593.563.593.195 0 .292-.039.477-.184l.914-.671v5.366c0 .399.233.671.593.671zm4.938.117c1.614 0 2.683-1.04 2.683-2.606 0-1.429-.962-2.45-2.352-2.45-.574 0-1.196.263-1.488.7l.165-2.1h2.917c.282 0 .525-.233.525-.563a.521.521 0 00-.525-.545h-3.111c-.505 0-.787.292-.836.807l-.214 2.8c-.039.486.214.72.642.72.32 0 .457-.059.739-.273.369-.34.67-.476 1.05-.476.758 0 1.263.554 1.263 1.4 0 .855-.593 1.477-1.4 1.477-.573 0-1.069-.33-1.322-.836-.146-.252-.32-.388-.564-.388-.32 0-.544.233-.544.563 0 .136.03.263.078.39.262.7 1.118 1.38 2.294 1.38z" fill="#28D"/></svg>