<svg width="31" height="32" fill="none" xmlns="http://www.w3.org/2000/svg"><path d="M28.591 2.262C26.417 0 22.953 0 16.027 0h-1.289C7.813 0 4.268 0 2.175 2.262 0 4.524 0 8.126 0 15.33v1.34c0 7.204 0 10.89 2.175 13.068C4.349 32 7.812 32 14.739 32h1.288c6.926 0 10.47 0 12.564-2.262 2.175-2.262 2.175-5.864 2.175-13.068v-1.34c0-7.204 0-10.806-2.175-13.068z" fill="#2787F5"/><path d="M24.965 22.702H22.71c-.886 0-1.127-.67-2.658-2.262-1.369-1.34-1.933-1.508-2.255-1.508-.483 0-.563.168-.563.838v2.094c0 .586-.161.921-1.611.921-2.416 0-4.993-1.508-6.846-4.272-2.819-4.02-3.544-7.12-3.544-7.707 0-.335.161-.67.806-.67h2.255c.564 0 .805.251.966.922 1.128 3.35 2.98 6.199 3.705 6.199.322 0 .403-.168.403-.922V12.9c-.08-1.591-.886-1.675-.886-2.261 0-.252.242-.503.564-.503h3.543c.484 0 .645.251.645.838v4.607c0 .503.241.67.322.67.322 0 .483-.167 1.047-.754 1.61-1.842 2.738-4.774 2.738-4.774.161-.336.403-.67.967-.67h2.255c.644 0 .805.334.644.837-.322 1.34-3.06 5.361-3.06 5.361-.242.42-.323.587 0 1.006.241.335 1.047 1.005 1.53 1.675.966 1.089 1.691 2.094 1.933 2.764.322.67 0 1.006-.645 1.006z" fill="#fff"/></svg>