<svg width="20" height="20" fill="none" xmlns="http://www.w3.org/2000/svg"><path d="M15.175 18.105c-.297.32-.794.297-1.085-.03-.292-.326-.268-.83.026-1.154A10.262 10.262 0 0016.771 10c0-2.675-1.008-5.108-2.655-6.921-.294-.324-.318-.83-.026-1.155.291-.327.788-.35 1.085-.03A11.88 11.88 0 0118.333 10a11.88 11.88 0 01-3.158 8.105z" fill="#8598A7"/><path d="M13.057 15.734c-.29.329-.787.304-1.079-.022-.291-.326-.266-.83.016-1.165A7.026 7.026 0 0013.646 10a7.026 7.026 0 00-1.652-4.547c-.282-.334-.307-.839-.016-1.165.292-.326.79-.35 1.079-.022A8.644 8.644 0 0115.208 10a8.644 8.644 0 01-2.151 5.734z" fill="#8598A7"/><path d="M9.866 13.348c.292.327.792.352 1.063.007A5.409 5.409 0 0012.083 10c0-1.27-.432-2.438-1.154-3.355-.271-.345-.771-.32-1.063.007-.291.326-.261.83-.012 1.19.42.61.667 1.355.667 2.158a3.79 3.79 0 01-.667 2.157c-.25.362-.28.865.012 1.191zM1.667 8.931c0-.59.466-1.069 1.041-1.069h1.278l2.974-2.74c.67-.618 1.738-.13 1.738.795v8.166c0 .925-1.067 1.413-1.738.795l-2.974-2.74H2.708c-.575 0-1.041-.479-1.041-1.07V8.932z" fill="#8598A7"/></svg>