<svg width="24" height="24" fill="none" xmlns="http://www.w3.org/2000/svg"><g clip-path="url(#clip0)"><path fill-rule="evenodd" clip-rule="evenodd" d="M16.159 15.92A8.08 8.08 0 110 15.92a8.08 8.08 0 0116.159 0zm-5.509-.734a1.102 1.102 0 100-2.203 1.102 1.102 0 000 2.203zm-5.141 0a1.102 1.102 0 100-2.203 1.102 1.102 0 000 2.203zm-1.202 2.792c0 .109.032.21.086.295v.002l.002.003.004.007.015.02.046.064c.04.052.097.122.171.204.149.164.37.378.669.59.601.43 1.512.848 2.758.848 1.244 0 2.165-.418 2.775-.844.303-.212.53-.425.682-.588a3.14 3.14 0 00.175-.202.55.55 0 00-.383-.947.55.55 0 00-.449.232l-.005-.004.001-.002-.003.005a2.198 2.198 0 01-.141.166 3.222 3.222 0 01-.508.436c-.457.32-1.161.646-2.144.646-.983 0-1.675-.326-2.12-.643a3.061 3.061 0 01-.49-.433 2.114 2.114 0 01-.112-.133l-.014-.018a.55.55 0 00-1.015.296z" fill="#28D"/><path d="M12.028 19.834h8a3 3 0 003-3v-13a3 3 0 00-3-3h-10a3 3 0 00-3 3v6.944m11-4.945h-6m6 4h-6m6 4h-4.276" stroke="#28D" stroke-width="1.5" stroke-linecap="round"/></g><defs><clipPath id="clip0"><path fill="#fff" d="M0 0h24v24H0z"/></clipPath></defs></svg>