<svg width="25" height="24" fill="none" xmlns="http://www.w3.org/2000/svg"><g clip-path="url(#clip0)" fill="#8598A7"><path d="M21.5 1a1 1 0 10-2 0v2h-2a.998.998 0 00-1 1 1 1 0 001 1h2v2a1 1 0 001.666.746A.997.997 0 0021.5 7V5h2a1 1 0 100-2h-2V1z"/><path fill-rule="evenodd" clip-rule="evenodd" d="M11.5 2c1.36 0 2.663.247 3.865.698A2.5 2.5 0 0017.5 6.5h.5V7a2.5 2.5 0 003.802 2.135c.451 1.202.698 2.505.698 3.865 0 6.075-4.925 11-11 11S.5 19.075.5 13s4.925-11 11-11zm-2 8.5a1.5 1.5 0 11-3 0 1.5 1.5 0 013 0zm7 0a1.5 1.5 0 11-3 0 1.5 1.5 0 013 0zm-.25 4.646a.75.75 0 01.25 1.031c-.558.914-2.283 2.63-4.96 2.63-2.666 0-4.515-1.702-5.136-2.59a.75.75 0 111.23-.86c.437.625 1.877 1.95 3.905 1.95 2.016 0 3.314-1.311 3.68-1.911a.75.75 0 011.031-.25z"/></g><defs><clipPath id="clip0"><path fill="#fff" transform="translate(.5)" d="M0 0h24v24H0z"/></clipPath></defs></svg>