<svg width="25" height="24" fill="none" xmlns="http://www.w3.org/2000/svg"><g clip-path="url(#clip0)"><path d="M15.159 19.148a4.3 4.3 0 004.306-4.293V4.292C19.465 1.904 17.518 0 15.159 0H9.84a4.3 4.3 0 00-4.306 4.292v.822c0 .41.337.746.75.746H9.13a.75.75 0 01.749.747v.783a.75.75 0 01-.749.747H6.284a.75.75 0 00-.749.746v1.12c0 .41.337.747.75.747H9.13a.75.75 0 01.749.746v.784a.75.75 0 01-.749.746H6.284a.75.75 0 00-.749.747v1.082c0 2.39 1.947 4.293 4.306 4.293h1.498v2.538H7.333c-.637 0-1.161.522-1.161 1.157 0 .634.524 1.157 1.16 1.157H17.63c.636 0 1.16-.523 1.16-1.157 0-.635-.524-1.157-1.16-1.157h-3.97v-2.538h1.498z" fill="#8598A7"/></g><defs><clipPath id="clip0"><path fill="#fff" transform="translate(.5)" d="M0 0h24v24H0z"/></clipPath></defs></svg>