<svg width="25" height="24" fill="none" xmlns="http://www.w3.org/2000/svg"><path fill-rule="evenodd" clip-rule="evenodd" d="M14.976.463A2.55 2.55 0 0013.209.12L13.2.121l-.008.002a2.652 2.652 0 00-1.548.96 2.707 2.707 0 00-.567 1.435 2.553 2.553 0 00-.904.018l-.013.003a2.629 2.629 0 00-1.495.957 2.684 2.684 0 00-.559 1.689v7.399l-.493-.4a2.92 2.92 0 00-2.273-.618 2.91 2.91 0 00-1.126.426 2.949 2.949 0 00-.862.845l-.006.01a3.069 3.069 0 00.279 3.666L7.87 21.54a6.715 6.715 0 002.29 1.754 6.63 6.63 0 002.804.623h2.748c1.705 0 3.34-.688 4.543-1.91a6.554 6.554 0 001.878-4.599V6.386a2.684 2.684 0 00-.559-1.688 2.629 2.629 0 00-1.495-.957l-.013-.003c-.3-.06-.606-.065-.904-.018a2.712 2.712 0 00-.571-1.437 2.657 2.657 0 00-1.559-.961l-.009-.002-.009-.001a2.548 2.548 0 00-1.144.073 2.592 2.592 0 00-.894-.929zm-9.593 13.39a.736.736 0 01.4-.12s.258-.016.46.166 1.68 1.364 1.68 1.364c.105.084.366.242.682.242h.515a1.17 1.17 0 001.17-1.165s-.005-.113-.005-.192l.005-.099V5.09c0-.109.043-.211.117-.286a.382.382 0 01.543 0 .408.408 0 01.117.286v6.31c0 .289.113.568.317.775a1.088 1.088 0 001.55 0c.204-.207.317-.486.317-.776V2.687a.41.41 0 01.116-.287.382.382 0 01.544 0 .408.408 0 01.116.287v8.712c0 .29.114.57.318.776a1.088 1.088 0 001.55 0 1.11 1.11 0 00.317-.776V3.89c0-.11.042-.212.116-.287a.382.382 0 01.544 0 .408.408 0 01.116.286V11.4c0 .29.113.57.317.776a1.088 1.088 0 001.55 0c.204-.207.317-.486.317-.776V6.292c0-.109.043-.212.116-.286a.382.382 0 01.544 0 .408.408 0 01.117.286v11.116a4.344 4.344 0 01-1.244 3.048 4.202 4.202 0 01-2.993 1.259h-2.748a4.46 4.46 0 01-1.887-.42 4.528 4.528 0 01-1.543-1.182l-4.318-5.112a.777.777 0 01-.11-.824.762.762 0 01.277-.324z" fill="#8598A7"/></svg>