<svg width="25" height="24" fill="none" xmlns="http://www.w3.org/2000/svg"><path d="M18.71 21.726c-.357.385-.953.356-1.302-.035-.35-.392-.321-.998.031-1.386A12.315 12.315 0 0020.625 12c0-3.21-1.21-6.128-3.186-8.305-.352-.388-.381-.994-.031-1.386.35-.391.945-.42 1.302-.035A14.256 14.256 0 0122.5 12c0 3.77-1.441 7.195-3.79 9.726z" fill="#8598A7"/><path d="M16.168 18.881c-.348.394-.944.365-1.294-.027-.35-.391-.32-.996.02-1.398A8.431 8.431 0 0016.874 12a8.431 8.431 0 00-1.982-5.456c-.339-.402-.37-1.007-.02-1.398.35-.392.947-.421 1.295-.027A10.373 10.373 0 0118.75 12a10.37 10.37 0 01-2.582 6.881z" fill="#8598A7"/><path d="M12.34 16.018c.35.392.95.422 1.275.008A6.49 6.49 0 0015 12a6.49 6.49 0 00-1.385-4.026c-.326-.414-.925-.384-1.275.008-.35.392-.314.996-.015 1.43.504.73.8 1.624.8 2.588s-.296 1.857-.8 2.589c-.3.433-.335 1.037.015 1.429zM2.5 10.717c0-.708.56-1.282 1.25-1.282h1.534l3.568-3.289c.805-.741 2.085-.155 2.085.955v9.798c0 1.11-1.28 1.696-2.085.954l-3.568-3.288H3.75c-.69 0-1.25-.574-1.25-1.282v-2.566z" fill="#8598A7"/></svg>