<svg width="24" height="24" fill="none" xmlns="http://www.w3.org/2000/svg"><mask id="a" fill="#fff"><path d="M2.419 4.921a2.921 2.921 0 115.843 0v.835a2.921 2.921 0 01-5.843 0v-.835z"/></mask><path d="M6.262 4.921v.835h4v-.835h-4zm-1.843.835v-.835h-4v.835h4zm.921.921a.921.921 0 01-.921-.921h-4a4.921 4.921 0 004.921 4.921v-4zm.922-.921a.921.921 0 01-.922.921v4a4.921 4.921 0 004.922-4.921h-4zM5.34 4c.51 0 .922.413.922.921h4A4.921 4.921 0 005.34 0v4zm0-4A4.921 4.921 0 00.42 4.921h4c0-.508.412-.921.921-.921V0z" fill="#8598A7" mask="url(#a)"/><path d="M3.115 16.09v0A2.02 2.02 0 011 14.072v-.685c0-1.124.703-2.128 1.759-2.512l1.458-.531a2.9 2.9 0 012.208.091v0" stroke="#8598A7" stroke-width="2" stroke-linecap="round"/><mask id="b" fill="#fff"><path d="M21.565 4.956a2.956 2.956 0 10-5.911 0V5.8a2.956 2.956 0 105.911 0v-.844z"/></mask><path d="M17.654 4.956V5.8h-4v-.844h4zm1.911.844v-.844h4V5.8h-4zm-.956.956a.956.956 0 00.956-.956h4a4.956 4.956 0 01-4.956 4.956v-4zm-.955-.956c0 .528.428.956.956.956v4A4.956 4.956 0 0113.654 5.8h4zM18.61 4a.956.956 0 00-.956.956h-4A4.956 4.956 0 0118.61 0v4zm0-4a4.956 4.956 0 014.955 4.956h-4A.956.956 0 0018.61 4V0z" fill="#8598A7" mask="url(#b)"/><path d="M20.86 16.255v0a2.043 2.043 0 002.14-2.04v-.694a2.705 2.705 0 00-1.78-2.542l-1.475-.537a2.935 2.935 0 00-2.234.093v0" stroke="#8598A7" stroke-width="2" stroke-linecap="round"/><path d="M5.257 19.44a6 6 0 012.695-2.47l.696-.321a8 8 0 016.704 0l.696.32a6 6 0 012.695 2.471l.324.568c.762 1.333-.2 2.992-1.736 2.992H6.67c-1.536 0-2.499-1.659-1.737-2.992l.324-.567z" fill="#8598A7" stroke="#8598A7" stroke-width="2"/><rect x="9.5" y="7" width="5" height="6" rx="2.5" fill="#8598A7" stroke="#8598A7" stroke-width="2"/></svg>