<svg width="18" height="22" fill="none" xmlns="http://www.w3.org/2000/svg"><path d="M11.813 21H9.406a5.369 5.369 0 01-2.27-.505 5.443 5.443 0 01-1.856-1.421l-3.722-4.407a2.25 2.25 0 01-.207-2.69c.165-.247.379-.456.627-.615a2.113 2.113 0 011.688-.26c.283.077.548.213.778.399l1.145.93V5.026a1.913 1.913 0 01.398-1.207 1.87 1.87 0 011.06-.679 1.8 1.8 0 011.136.143v-.335c-.01-.45.135-.888.412-1.24a1.885 1.885 0 011.1-.682c.43-.074.871.012 1.244.242.373.23.652.587.786 1.008a1.796 1.796 0 011.158-.2c.437.089.83.33 1.108.684.28.353.426.795.415 1.247v.33a1.8 1.8 0 011.135-.144c.42.095.795.335 1.06.68.267.343.407.77.399 1.206v9.658a5.303 5.303 0 01-1.52 3.722A5.149 5.149 0 0111.814 21zm-8.697-8.92a1.092 1.092 0 00-.589.176 1.125 1.125 0 00-.242 1.654l3.782 4.479c.413.489.925.881 1.502 1.15a4.344 4.344 0 001.837.408h2.407c1.1 0 2.156-.443 2.934-1.233a4.242 4.242 0 001.215-2.977V6c0-.21-.082-.41-.227-.558a.772.772 0 00-1.1 0 .795.795 0 00-.229.558v4.474a.53.53 0 01-.152.372.515.515 0 01-.733 0 .53.53 0 01-.152-.372V3.895c0-.21-.082-.41-.228-.558a.772.772 0 00-1.1 0 .796.796 0 00-.228.558v6.579a.53.53 0 01-.152.372.515.515 0 01-.733 0 .53.53 0 01-.152-.372V2.842a.795.795 0 00-.228-.558.772.772 0 00-1.1 0 .795.795 0 00-.228.558v7.632a.53.53 0 01-.152.372.515.515 0 01-.733 0 .53.53 0 01-.152-.372V4.948c0-.21-.082-.41-.228-.559a.772.772 0 00-1.1 0 .795.795 0 00-.228.559v8.157a.533.533 0 01-.152.373.518.518 0 01-.367.154H5.59a.52.52 0 01-.324-.115l-1.47-1.194a1.073 1.073 0 00-.68-.242z" fill="#fff" stroke="#fff" stroke-width=".5"/></svg>