<svg width="21" height="22" fill="none" xmlns="http://www.w3.org/2000/svg"><path d="M10.104 21.977c5.424 0 9.915-4.492 9.915-9.916 0-3.266-1.652-6.202-4.15-8.02-.428-.33-.963-.224-1.206.175-.243.408-.117.865.282 1.166a8.21 8.21 0 013.422 6.679 8.225 8.225 0 01-8.264 8.263 8.223 8.223 0 01-8.253-8.263 8.217 8.217 0 016.377-8.05v1.4c0 .69.477.875 1.011.496L12.34 3.73c.438-.302.448-.768 0-1.09L9.248.464C8.704.074 8.228.26 8.228.96v1.37c-4.55.885-8.04 4.949-8.04 9.732 0 5.424 4.5 9.916 9.915 9.916zm-2.888-5.93c.38 0 .622-.263.622-.671V9.242c0-.496-.252-.759-.69-.759-.272 0-.466.088-.807.321L5 9.708c-.224.166-.33.34-.33.564 0 .321.252.593.563.593.194 0 .292-.039.476-.184l.914-.671v5.366c0 .399.233.67.593.67zm4.939.116c1.613 0 2.683-1.04 2.683-2.605 0-1.429-.963-2.45-2.353-2.45-.573 0-1.195.263-1.487.7l.165-2.1h2.916c.282 0 .525-.233.525-.563a.521.521 0 00-.524-.545h-3.111c-.506 0-.788.292-.836.807l-.214 2.8c-.04.486.214.72.641.72.321 0 .457-.06.74-.273.369-.34.67-.476 1.05-.476.757 0 1.263.554 1.263 1.4 0 .855-.593 1.477-1.4 1.477-.574 0-1.07-.33-1.322-.836-.146-.253-.32-.389-.564-.389-.32 0-.544.234-.544.564 0 .136.029.263.077.389.263.7 1.118 1.38 2.295 1.38z" fill="#28D"/></svg>