<svg width="24" height="24" fill="none" xmlns="http://www.w3.org/2000/svg"><path d="M2 5.5a4 4 0 014-4h12a4 4 0 014 4v13a4 4 0 01-4 4H6a4 4 0 01-4-4v-13z" stroke="#8598A7" stroke-width="2"/><path d="M6 1.5h12a4 4 0 014 4v1.94H2V5.5a4 4 0 014-4z" fill="#8598A7" stroke="#8598A7" stroke-width="2"/><circle opacity=".3" cx="7" cy="12.461" r="1.5" fill="#8598A7"/><circle cx="7" cy="17.424" r="1.5" fill="#8598A7"/><circle cx="12" cy="12.461" r="1.5" fill="#8598A7"/><circle cx="12" cy="17.424" r="1.5" fill="#8598A7"/><circle opacity=".3" cx="17" cy="17.424" r="1.5" fill="#8598A7"/><circle cx="17" cy="12.461" r="1.5" fill="#8598A7"/></svg>