<svg width="24" height="24" fill="none" xmlns="http://www.w3.org/2000/svg"><path d="M14.27 18.118a3.676 3.676 0 003.677-3.674V5.403a3.676 3.676 0 00-3.677-3.674H9.73a3.676 3.676 0 00-3.678 3.674v.703c0 .351.288.639.64.639h2.43c.352 0 .64.287.64.639v.67a.641.641 0 01-.64.64h-2.43a.641.641 0 00-.64.638v.959c0 .351.288.639.64.639h2.43c.352 0 .64.287.64.639v.67a.641.641 0 01-.64.64h-2.43a.641.641 0 00-.64.639v.926a3.676 3.676 0 003.678 3.674h1.279v2.173H7.587a.996.996 0 00-.99.99c0 .543.447.99.99.99h8.793a.996.996 0 00.992-.99.996.996 0 00-.992-.99h-3.389v-2.173h1.279z" fill="#fff"/></svg>