<svg width="131" height="44" viewBox="0 0 131 44" fill="none" xmlns="http://www.w3.org/2000/svg">
<g clip-path="url(#clip0)">
<path d="M120.568 -0.000101141H10.4379C10.0365 -0.000101141 9.63985 -0.000101141 9.23948 0.00209886C8.90433 0.00429886 8.57184 0.0106899 8.23347 0.0160689C7.49838 0.0247608 6.76501 0.0897428 6.03974 0.21045C5.31549 0.333785 4.61393 0.566306 3.95879 0.90015C3.30445 1.23682 2.70655 1.67428 2.1868 2.19668C1.66432 2.7176 1.2288 3.31972 0.896968 3.97987C0.564225 4.63872 0.333499 5.34473 0.212761 6.07353C0.0908747 6.8014 0.0252865 7.53767 0.0165852 8.27573C0.00642607 8.61299 0.00535324 8.95137 0 9.28867V34.7144C0.00535324 35.0559 0.00642607 35.3868 0.0165852 35.7284C0.0252892 36.4665 0.0908774 37.2027 0.212761 37.9305C0.333166 38.6598 0.563905 39.3662 0.896968 40.0253C1.22864 40.6833 1.66423 41.283 2.1868 41.801C2.70458 42.3257 3.30286 42.7635 3.95879 43.0976C4.61393 43.4323 5.31541 43.6662 6.03974 43.7915C6.76513 43.9112 7.49842 43.9762 8.23347 43.9859C8.57184 43.9934 8.90433 43.9977 9.23948 43.9977C9.63984 43.9999 10.0365 43.9999 10.4379 43.9999H120.568C120.961 43.9999 121.361 43.9999 121.755 43.9977C122.088 43.9977 122.43 43.9934 122.764 43.9859C123.498 43.9767 124.229 43.9117 124.953 43.7915C125.68 43.6653 126.384 43.4315 127.042 43.0976C127.698 42.7633 128.295 42.3255 128.813 41.801C129.334 41.2809 129.77 40.6817 130.106 40.0253C130.437 39.3657 130.665 38.6593 130.784 37.9305C130.906 37.2026 130.974 36.4665 130.987 35.7284C130.991 35.3868 130.991 35.0559 130.991 34.7144C131 34.3147 131 33.9173 131 33.5112V10.4896C131 10.0868 131 9.6872 130.991 9.28867C130.991 8.95137 130.991 8.61299 130.987 8.27568C130.974 7.53756 130.906 6.80146 130.784 6.07348C130.665 5.34511 130.437 4.63915 130.106 3.97983C129.431 2.65661 128.359 1.57953 127.042 0.900051C126.384 0.567023 125.68 0.334563 124.953 0.210351C124.23 0.0891119 123.498 0.0241074 122.764 0.0159149C122.43 0.0105469 122.088 0.00410086 121.755 0.00195586C121.361 -0.000244141 120.961 -0.000244141 120.568 -0.000244141V-0.000101141Z" fill="black"/>
<path d="M27.3645 21.8783C27.3768 20.9235 27.6291 19.9874 28.0982 19.157C28.5673 18.3266 29.2377 17.6289 30.0472 17.1288C29.533 16.3908 28.8546 15.7835 28.0658 15.355C27.2771 14.9266 26.3998 14.6888 25.5037 14.6606C23.592 14.459 21.7388 15.8101 20.7646 15.8101C19.7716 15.8101 18.2717 14.6807 16.6566 14.7141C15.612 14.748 14.5938 15.0532 13.7015 15.6001C12.8091 16.1469 12.0729 16.9167 11.5646 17.8344C9.36302 21.6646 11.0052 27.2938 13.1142 30.3898C14.1694 31.9059 15.4026 33.5993 17.0163 33.5393C18.5953 33.4735 19.1851 32.5275 21.0911 32.5275C22.9794 32.5275 23.5327 33.5393 25.1791 33.5011C26.8735 33.4735 27.941 31.9783 28.9592 30.4479C29.7174 29.3677 30.3008 28.1738 30.6878 26.9104C29.7034 26.4921 28.8634 25.7918 28.2724 24.897C27.6814 24.0021 27.3657 22.9522 27.3645 21.8783Z" fill="white"/>
<path d="M24.2548 12.6245C25.1787 11.5101 25.6338 10.0777 25.5236 8.63159C24.1122 8.78055 22.8084 9.45837 21.8721 10.53C21.4143 11.0535 21.0637 11.6626 20.8403 12.3223C20.6168 12.9821 20.525 13.6796 20.5701 14.375C21.276 14.3823 21.9745 14.2286 22.6127 13.9254C23.251 13.6221 23.8124 13.1773 24.2548 12.6245Z" fill="white"/>
<path d="M46.3091 29.8536H41.1273L39.8829 33.5457H37.6881L42.5962 19.8859H44.8765L49.7847 33.5457H47.5524L46.3091 29.8536ZM41.664 28.1499H45.7714L43.7466 22.1579H43.6899L41.664 28.1499Z" fill="white"/>
<path d="M60.3845 28.5667C60.3845 31.6615 58.736 33.6499 56.2483 33.6499C55.6181 33.683 54.9914 33.5371 54.4398 33.229C53.8883 32.9208 53.4343 32.4629 53.1298 31.9075H53.0827V36.8403H51.0483V23.5866H53.0175V25.243H53.0549C53.3734 24.6903 53.8351 24.2347 54.3908 23.9247C54.9466 23.6147 55.5755 23.4618 56.2108 23.4824C58.7264 23.4824 60.3845 25.4804 60.3845 28.5667ZM58.2934 28.5667C58.2934 26.5504 57.2564 25.2248 55.6742 25.2248C54.1197 25.2248 53.0742 26.5783 53.0742 28.5667C53.0742 30.5733 54.1197 31.9172 55.6742 31.9172C57.2564 31.9172 58.2934 30.6012 58.2934 28.5667Z" fill="white"/>
<path d="M71.2939 28.5667C71.2939 31.6615 69.6448 33.6499 67.1571 33.6499C66.5269 33.683 65.9002 33.5371 65.3487 33.229C64.7971 32.9208 64.3431 32.4629 64.0386 31.9075H63.9915V36.8403H61.9571V23.5866H63.9263V25.243H63.9637C64.2823 24.6903 64.7439 24.2347 65.2997 23.9247C65.8554 23.6147 66.4843 23.4618 67.1196 23.4824C69.6352 23.4824 71.2939 25.4804 71.2939 28.5667ZM69.2022 28.5667C69.2022 26.5504 68.1652 25.2248 66.583 25.2248C65.0286 25.2248 63.983 26.5783 63.983 28.5667C63.983 30.5733 65.0286 31.9172 66.583 31.9172C68.1652 31.9172 69.2022 30.6012 69.2022 28.5667Z" fill="white"/>
<path d="M78.5026 29.7397C78.6534 31.0943 79.963 31.9837 81.7526 31.9837C83.4674 31.9837 84.7011 31.0943 84.7011 29.8729C84.7011 28.8126 83.9571 28.1778 82.1952 27.7427L80.4334 27.3162C77.9371 26.7104 76.7782 25.5373 76.7782 23.6338C76.7782 21.277 78.8223 19.6581 81.7238 19.6581C84.5974 19.6581 86.5667 21.277 86.633 23.6338H84.5792C84.4563 22.2706 83.3348 21.4478 81.696 21.4478C80.0571 21.4478 78.9356 22.2803 78.9356 23.492C78.9356 24.4577 79.6519 25.026 81.4041 25.461L82.9019 25.8305C85.6911 26.4933 86.8489 27.6191 86.8489 29.6172C86.8489 32.1727 84.8241 33.7733 81.6018 33.7733C78.587 33.7733 76.5515 32.2103 76.42 29.7396L78.5026 29.7397Z" fill="white"/>
<path d="M91.2417 21.2298V23.5866H93.1265V25.2054H91.2417V30.6958C91.2417 31.5487 91.6191 31.9462 92.4476 31.9462C92.6714 31.9422 92.8948 31.9265 93.1169 31.8989V33.508C92.7444 33.578 92.3658 33.6097 91.9869 33.6026C89.9802 33.6026 89.1976 32.8452 89.1976 30.9138V25.2054H87.7565V23.5866H89.1976V21.2298H91.2417Z" fill="white"/>
<path d="M94.217 28.5667C94.217 25.4332 96.0536 23.4641 98.9177 23.4641C101.791 23.4641 103.619 25.4331 103.619 28.5667C103.619 31.7088 101.801 33.6692 98.9177 33.6692C96.0355 33.6692 94.217 31.7088 94.217 28.5667ZM101.547 28.5667C101.547 26.4172 100.566 25.1485 98.9177 25.1485C97.2692 25.1485 96.2888 26.4268 96.2888 28.5667C96.2888 30.7248 97.2692 31.9838 98.9177 31.9838C100.566 31.9838 101.547 30.7248 101.547 28.5667Z" fill="white"/>
<path d="M105.297 23.5866H107.237V25.2817H107.284C107.416 24.7523 107.724 24.2844 108.158 23.9567C108.593 23.6291 109.126 23.4616 109.668 23.4824C109.903 23.4816 110.137 23.5071 110.365 23.5587V25.4708C110.069 25.3799 109.761 25.3382 109.451 25.3472C109.156 25.3352 108.861 25.3875 108.588 25.5007C108.314 25.6139 108.068 25.7852 107.867 26.0029C107.665 26.2206 107.513 26.4795 107.421 26.7618C107.328 27.0441 107.298 27.3432 107.331 27.6385V33.5457H105.297L105.297 23.5866Z" fill="white"/>
<path d="M119.745 30.6206C119.472 32.4285 117.719 33.6692 115.478 33.6692C112.594 33.6692 110.805 31.7281 110.805 28.6139C110.805 25.4901 112.604 23.4641 115.392 23.4641C118.134 23.4641 119.859 25.3569 119.859 28.3765V29.0769H112.858V29.2005C112.826 29.567 112.872 29.9362 112.992 30.2836C113.113 30.6311 113.306 30.9487 113.558 31.2155C113.81 31.4823 114.116 31.6922 114.455 31.8311C114.794 31.97 115.159 32.0349 115.525 32.0213C116.005 32.0666 116.488 31.9547 116.9 31.7023C117.313 31.45 117.633 31.0706 117.814 30.6206L119.745 30.6206ZM112.868 27.6482H117.823C117.841 27.3187 117.792 26.9889 117.677 26.6795C117.563 26.3702 117.386 26.088 117.157 25.8507C116.929 25.6133 116.654 25.426 116.351 25.3003C116.047 25.1747 115.721 25.1135 115.392 25.1206C115.061 25.1186 114.732 25.1825 114.426 25.3088C114.119 25.435 113.841 25.621 113.606 25.856C113.371 26.0909 113.185 26.3703 113.059 26.6779C112.932 26.9855 112.867 27.3153 112.868 27.6482Z" fill="white"/>
<path d="M40.2184 12.3787H41.0918C41.2422 12.3976 41.3948 12.3849 41.54 12.3415C41.6853 12.2981 41.82 12.2249 41.9357 12.1266C42.0514 12.0283 42.1456 11.907 42.2123 11.7703C42.279 11.6337 42.3169 11.4846 42.3234 11.3325C42.3234 10.7271 41.8701 10.3361 41.1015 10.3361C40.9474 10.3145 40.7906 10.3241 40.6403 10.3644C40.49 10.4046 40.3493 10.4748 40.2264 10.5706C40.1036 10.6664 40.001 10.786 39.9249 10.9223C39.8488 11.0586 39.8007 11.2088 39.7833 11.3641H38.8243C38.8408 11.0822 38.9149 10.8067 39.042 10.5548C39.169 10.3029 39.3463 10.08 39.5628 9.89989C39.7794 9.71981 40.0305 9.58645 40.3005 9.50811C40.5705 9.42977 40.8537 9.40812 41.1324 9.44451C42.4185 9.44451 43.3241 10.168 43.3241 11.2095C43.3271 11.5583 43.2109 11.8977 42.995 12.1709C42.779 12.4442 42.4763 12.6347 42.1374 12.7107V12.788C42.5392 12.8059 42.9175 12.9829 43.1898 13.2803C43.462 13.5778 43.606 13.9714 43.5903 14.3752C43.5605 14.6655 43.4734 14.9469 43.3341 15.2029C43.1947 15.4589 43.0059 15.6844 42.7787 15.8661C42.5514 16.0479 42.2904 16.1822 42.0108 16.2612C41.7313 16.3403 41.4388 16.3625 41.1506 16.3265C40.8618 16.3661 40.5681 16.3468 40.2868 16.2698C40.0056 16.1929 39.7427 16.0598 39.5137 15.8786C39.2847 15.6973 39.0944 15.4716 38.9542 15.2149C38.8139 14.9582 38.7264 14.6757 38.6971 14.3843H39.671C39.7298 15.0122 40.3039 15.4172 41.1506 15.4172C41.9973 15.4172 42.5501 14.9623 42.5501 14.321C42.5501 13.6705 42.0294 13.2699 41.1196 13.2699H40.2184V12.3787Z" fill="white"/>
<path d="M44.6968 14.7667C44.6968 13.8751 45.3585 13.3611 46.5302 13.2881L47.8655 13.2107V12.7832C47.8655 12.26 47.5223 11.9646 46.8563 11.9646C46.3132 11.9646 45.9379 12.165 45.8289 12.5152H44.887C44.9865 11.6644 45.784 11.1187 46.9022 11.1187C48.1381 11.1187 48.8351 11.7369 48.8351 12.7832V16.1675H47.8976V15.4714H47.8206C47.6644 15.7211 47.445 15.9247 47.1848 16.0613C46.9247 16.1979 46.6331 16.2627 46.3399 16.2491C46.133 16.2708 45.9238 16.2486 45.7259 16.184C45.5281 16.1194 45.3458 16.0139 45.191 15.8742C45.0362 15.7346 44.9122 15.5639 44.8271 15.3731C44.742 15.1824 44.6976 14.9758 44.6968 14.7667ZM47.8655 14.3435V13.9294L46.6617 14.0067C45.9828 14.0524 45.6749 14.2844 45.6749 14.7211C45.6749 15.1669 46.0598 15.4263 46.589 15.4263C46.7441 15.4421 46.9007 15.4263 47.0496 15.38C47.1985 15.3337 47.3366 15.2578 47.4557 15.1568C47.5748 15.0558 47.6724 14.9317 47.7428 14.792C47.8132 14.6523 47.8549 14.4997 47.8655 14.3435Z" fill="white"/>
<path d="M51.4169 12.0371V16.1675H50.4441V11.2143H53.6898V12.0371L51.4169 12.0371Z" fill="white"/>
<path d="M59.5857 13.6888C59.5857 15.2625 58.7936 16.2492 57.5492 16.2492C57.2437 16.2701 56.9386 16.203 56.6699 16.0556C56.4011 15.9082 56.1798 15.6867 56.0321 15.4172H55.9552V17.8143H54.9823V11.2143H55.9188V12.0329H55.9915C56.1419 11.754 56.366 11.5222 56.6392 11.3633C56.9124 11.2043 57.224 11.1243 57.5395 11.1321C58.7935 11.1321 59.5857 12.1145 59.5857 13.6888ZM58.5851 13.6888C58.5851 12.6425 58.0922 12.0103 57.268 12.0103C56.4491 12.0103 55.937 12.6559 55.937 13.6931C55.937 14.7254 56.4491 15.3715 57.2637 15.3715C58.0922 15.3715 58.5851 14.7393 58.5851 13.6888Z" fill="white"/>
<path d="M60.8815 17.9416V17.0999C60.9867 17.1134 61.0928 17.1195 61.1989 17.1182C61.4062 17.1336 61.6118 17.0716 61.7764 16.944C61.9409 16.8164 62.0528 16.6323 62.0905 16.4269L62.1632 16.1858L60.379 11.2143H61.4384L62.6743 15.1486H62.7513L63.9828 11.2143H65.0145L63.1768 16.3721C62.7556 17.5774 62.2894 17.9641 61.2845 17.9641C61.2033 17.9641 60.9723 17.955 60.8815 17.9416Z" fill="white"/>
<path d="M65.7725 14.7619H66.741C66.8362 15.1986 67.2435 15.4263 67.8133 15.4263C68.4612 15.4263 68.8589 15.1395 68.8589 14.6937C68.8589 14.2162 68.5018 13.9885 67.8133 13.9885H67.0757V13.229H67.8005C68.3885 13.229 68.6878 13.0018 68.6878 12.5877C68.6878 12.2241 68.3981 11.9464 67.8005 11.9464C67.2563 11.9464 66.8586 12.1784 66.7955 12.5694H65.858C65.9281 12.1201 66.1709 11.7164 66.5341 11.4451C66.8974 11.1738 67.3521 11.0566 67.8005 11.1187C68.9722 11.1187 69.6425 11.651 69.6425 12.4878C69.648 12.7208 69.5737 12.9487 69.432 13.1333C69.2903 13.3178 69.0899 13.448 68.8642 13.5019V13.5792C69.1329 13.614 69.3795 13.7468 69.5573 13.9522C69.7351 14.1576 69.8316 14.4215 69.8285 14.6937C69.8285 15.6353 69.031 16.2583 67.8133 16.2583C66.7368 16.2583 65.8623 15.7625 65.7725 14.7619Z" fill="white"/>
<path d="M71.2296 16.1675V11.2143H72.1939V14.6212H72.2708L74.5426 11.2143H75.5069V16.1675H74.5426V12.7424H74.4699L72.1939 16.1675L71.2296 16.1675Z" fill="white"/>
<path d="M80.8191 12.0371H79.2668V16.1675H78.2929V12.0371H76.7406V11.2143H80.8191V12.0371Z" fill="white"/>
<path d="M86.0597 14.8301C85.9272 15.2828 85.6406 15.6743 85.2499 15.9362C84.8593 16.1981 84.3895 16.3138 83.9227 16.2631C83.5979 16.2717 83.2751 16.2092 82.9768 16.0799C82.6785 15.9507 82.4118 15.7577 82.1951 15.5144C81.9785 15.2712 81.8171 14.9835 81.7222 14.6713C81.6273 14.3591 81.6011 14.0298 81.6455 13.7065C81.6023 13.3821 81.6289 13.0522 81.7236 12.739C81.8183 12.4259 81.9788 12.1368 82.1943 11.8915C82.4098 11.6461 82.6753 11.4501 82.9727 11.3168C83.2702 11.1834 83.5927 11.1159 83.9184 11.1187C85.29 11.1187 86.1185 12.0603 86.1185 13.6157V13.9568H82.6376V14.0116C82.6222 14.1934 82.6448 14.3764 82.704 14.5489C82.7632 14.7214 82.8577 14.8796 82.9813 15.0132C83.1049 15.1469 83.255 15.253 83.4219 15.3249C83.5889 15.3968 83.7689 15.4328 83.9505 15.4306C84.183 15.4585 84.4186 15.4163 84.6272 15.3094C84.8359 15.2025 85.0081 15.0356 85.1222 14.8301L86.0597 14.8301ZM82.6376 13.2338H85.1264C85.1387 13.0677 85.1163 12.9008 85.0606 12.7438C85.0049 12.5869 84.9171 12.4434 84.8029 12.3226C84.6888 12.2017 84.5507 12.1062 84.3977 12.0422C84.2446 11.9781 84.0799 11.947 83.9141 11.9507C83.7458 11.9484 83.5787 11.98 83.4228 12.0437C83.2668 12.1073 83.1252 12.2018 83.0062 12.3214C82.8872 12.441 82.7933 12.5834 82.73 12.7401C82.6667 12.8968 82.6352 13.0647 82.6376 13.2338Z" fill="white"/>
<path d="M90.1842 11.2143H92.4068C93.3711 11.2143 93.9367 11.7052 93.9367 12.4738C93.9382 12.7177 93.8563 12.9547 93.7047 13.1451C93.5531 13.3356 93.341 13.4679 93.1039 13.5201V13.5974C93.3917 13.6157 93.6617 13.7444 93.8578 13.9569C94.054 14.1694 94.1614 14.4495 94.158 14.7393C94.158 15.6035 93.5112 16.1675 92.4293 16.1675H90.1842V11.2143ZM91.1485 11.9646V13.2472H92.1128C92.7008 13.2472 92.982 13.02 92.982 12.6011C92.982 12.2149 92.7372 11.9646 92.2208 11.9646L91.1485 11.9646ZM91.1485 13.9659V15.4172H92.3021C92.8773 15.4172 93.1852 15.162 93.1852 14.6937C93.1852 14.1979 92.8366 13.9659 92.1802 13.9659L91.1485 13.9659Z" fill="white"/>
</g>
<defs>
<clipPath id="clip0">
<rect width="131" height="44" fill="white"/>
</clipPath>
</defs>
</svg>
