<svg width="24" height="24" viewBox="0 0 24 24" fill="none" xmlns="http://www.w3.org/2000/svg">
<rect x="10" y="1" width="4" height="6" rx="2" fill="white" stroke="#2288DD" stroke-width="2"/>
<rect x="7" y="19" width="4" height="4" rx="2" fill="white" stroke="#2288DD" stroke-width="2"/>
<mask id="path-3-inside-1" fill="white">
<path fill-rule="evenodd" clip-rule="evenodd" d="M12 3C8.13401 3 5 6.13401 5 10L5 13C5 15.8677 3.3553 17.584 1.95248 18.8094C0.704651 19.8994 1.34315 21 3 21H21C22.6569 21 23.2954 19.8994 22.0475 18.8094C20.6447 17.584 19 15.8677 19 13V10C19 6.13401 15.866 3 12 3Z"/>
</mask>
<path fill-rule="evenodd" clip-rule="evenodd" d="M12 3C8.13401 3 5 6.13401 5 10L5 13C5 15.8677 3.3553 17.584 1.95248 18.8094C0.704651 19.8994 1.34315 21 3 21H21C22.6569 21 23.2954 19.8994 22.0475 18.8094C20.6447 17.584 19 15.8677 19 13V10C19 6.13401 15.866 3 12 3Z" fill="white"/>
<path d="M5 10L7 10V10H5ZM5 13L3 13V13H5ZM1.95248 18.8094L0.636736 17.3032H0.636735L1.95248 18.8094ZM22.0475 18.8094L20.7318 20.3157V20.3157L22.0475 18.8094ZM7 10C7 7.23858 9.23858 5 12 5V1C7.02944 1 3 5.02944 3 10H7ZM7 13L7 10L3 10L3 13L7 13ZM3.26822 20.3157C4.77579 18.9988 7 16.7725 7 13H3C3 14.9628 1.93481 16.1693 0.636736 17.3032L3.26822 20.3157ZM3 19C2.79503 19 2.731 18.9644 2.76696 18.9802C2.80213 18.9957 3.01283 19.1006 3.167 19.4016C3.33814 19.7356 3.31516 20.0701 3.24452 20.272C3.1872 20.4359 3.13034 20.4361 3.26822 20.3157L0.636735 17.3032C-0.270508 18.0957 -1.22688 19.5977 -0.393033 21.2253C0.32981 22.6363 1.88591 23 3 23V19ZM21 19H3V23H21V19ZM20.7318 20.3157C20.8697 20.4361 20.8128 20.4359 20.7555 20.272C20.6848 20.0702 20.6619 19.7356 20.833 19.4016C20.9872 19.1006 21.1979 18.9957 21.233 18.9802C21.269 18.9644 21.205 19 21 19V23C22.1141 23 23.6702 22.6363 24.393 21.2253C25.2269 19.5977 24.2705 18.0957 23.3633 17.3032L20.7318 20.3157ZM17 13C17 16.7725 19.2242 18.9988 20.7318 20.3157L23.3633 17.3032C22.0652 16.1693 21 14.9628 21 13H17ZM17 10V13H21V10H17ZM12 5C14.7614 5 17 7.23858 17 10H21C21 5.02944 16.9706 1 12 1V5Z" fill="#2288DD" mask="url(#path-3-inside-1)"/>
</svg>
