<svg width="24" height="24" viewBox="0 0 24 24" fill="none" xmlns="http://www.w3.org/2000/svg">
<mask id="path-1-inside-1" fill="white">
<path fill-rule="evenodd" clip-rule="evenodd" d="M12 0C5.37258 0 0 5.37258 0 12C0 18.6274 5.37258 24 12 24C18.6274 24 24 18.6274 24 12C24 5.37258 18.6274 0 12 0ZM16.971 16.9743C16.5078 17.4374 15.7569 17.4374 15.2938 16.9743L12.1704 13.8509L9.04824 16.9731C8.5851 17.4363 7.8342 17.4363 7.37106 16.9731C6.90792 16.51 6.90792 15.7591 7.37106 15.296L10.4933 12.1738L7.37103 9.05153C6.90789 8.58838 6.90789 7.83748 7.37103 7.37434C7.83417 6.9112 8.58507 6.9112 9.04821 7.37434L12.1704 10.4966L15.2938 7.3732C15.757 6.91005 16.5079 6.91005 16.971 7.3732C17.4341 7.83634 17.4341 8.58724 16.971 9.05038L13.8476 12.1738L16.971 15.2971C17.4341 15.7603 17.4341 16.5112 16.971 16.9743Z"/>
</mask>
<path fill-rule="evenodd" clip-rule="evenodd" d="M12 0C5.37258 0 0 5.37258 0 12C0 18.6274 5.37258 24 12 24C18.6274 24 24 18.6274 24 12C24 5.37258 18.6274 0 12 0ZM16.971 16.9743C16.5078 17.4374 15.7569 17.4374 15.2938 16.9743L12.1704 13.8509L9.04824 16.9731C8.5851 17.4363 7.8342 17.4363 7.37106 16.9731C6.90792 16.51 6.90792 15.7591 7.37106 15.296L10.4933 12.1738L7.37103 9.05153C6.90789 8.58838 6.90789 7.83748 7.37103 7.37434C7.83417 6.9112 8.58507 6.9112 9.04821 7.37434L12.1704 10.4966L15.2938 7.3732C15.757 6.91005 16.5079 6.91005 16.971 7.3732C17.4341 7.83634 17.4341 8.58724 16.971 9.05038L13.8476 12.1738L16.971 15.2971C17.4341 15.7603 17.4341 16.5112 16.971 16.9743Z" fill="white"/>
<path d="M15.2938 16.9743L15.6473 16.6207V16.6207L15.2938 16.9743ZM16.971 16.9743L16.6174 16.6207L16.6174 16.6207L16.971 16.9743ZM12.1704 13.8509L12.524 13.4974L12.1704 13.1438L11.8169 13.4974L12.1704 13.8509ZM9.04824 16.9731L9.40179 17.3267H9.40179L9.04824 16.9731ZM7.37106 16.9731L7.0175 17.3267H7.0175L7.37106 16.9731ZM7.37106 15.296L7.72461 15.6495L7.37106 15.296ZM10.4933 12.1738L10.8468 12.5273L11.2004 12.1738L10.8468 11.8202L10.4933 12.1738ZM7.37103 9.05153L7.01747 9.40508L7.01747 9.40508L7.37103 9.05153ZM7.37103 7.37434L7.01747 7.02079V7.02079L7.37103 7.37434ZM9.04821 7.37434L9.40176 7.02079L9.40176 7.02079L9.04821 7.37434ZM12.1704 10.4966L11.8169 10.8501L12.1704 11.2037L12.524 10.8501L12.1704 10.4966ZM15.2938 7.3732L14.9403 7.01964L14.9403 7.01964L15.2938 7.3732ZM16.971 9.05038L16.6175 8.69682L16.971 9.05038ZM13.8476 12.1738L13.4941 11.8202L13.1405 12.1738L13.4941 12.5273L13.8476 12.1738ZM16.971 15.2971L16.6174 15.6507H16.6174L16.971 15.2971ZM0.5 12C0.5 5.64873 5.64873 0.5 12 0.5V-0.5C5.09644 -0.5 -0.5 5.09644 -0.5 12H0.5ZM12 23.5C5.64873 23.5 0.5 18.3513 0.5 12H-0.5C-0.5 18.9036 5.09644 24.5 12 24.5V23.5ZM23.5 12C23.5 18.3513 18.3513 23.5 12 23.5V24.5C18.9036 24.5 24.5 18.9036 24.5 12H23.5ZM12 0.5C18.3513 0.5 23.5 5.64873 23.5 12H24.5C24.5 5.09644 18.9036 -0.5 12 -0.5V0.5ZM14.9402 17.3278C15.5986 17.9862 16.6661 17.9862 17.3245 17.3278L16.6174 16.6207C16.3495 16.8886 15.9152 16.8886 15.6473 16.6207L14.9402 17.3278ZM11.8169 14.2045L14.9402 17.3278L15.6473 16.6207L12.524 13.4974L11.8169 14.2045ZM9.40179 17.3267L12.524 14.2045L11.8169 13.4974L8.69468 16.6196L9.40179 17.3267ZM7.0175 17.3267C7.67591 17.9851 8.74339 17.9851 9.40179 17.3267L8.69469 16.6196C8.42681 16.8875 7.99249 16.8875 7.72461 16.6196L7.0175 17.3267ZM7.0175 14.9424C6.3591 15.6008 6.3591 16.6683 7.0175 17.3267L7.72461 16.6196C7.45673 16.3517 7.45673 15.9174 7.72461 15.6495L7.0175 14.9424ZM10.1397 11.8202L7.0175 14.9424L7.72461 15.6495L10.8468 12.5273L10.1397 11.8202ZM7.01747 9.40508L10.1397 12.5273L10.8468 11.8202L7.72458 8.69797L7.01747 9.40508ZM7.01747 7.02079C6.35907 7.67919 6.35907 8.74667 7.01747 9.40508L7.72458 8.69797C7.4567 8.43009 7.4567 7.99578 7.72458 7.7279L7.01747 7.02079ZM9.40176 7.02079C8.74336 6.36239 7.67588 6.36239 7.01747 7.02079L7.72458 7.7279C7.99246 7.46002 8.42677 7.46002 8.69466 7.7279L9.40176 7.02079ZM12.524 10.143L9.40176 7.02079L8.69465 7.7279L11.8169 10.8501L12.524 10.143ZM14.9403 7.01964L11.8169 10.143L12.524 10.8501L15.6474 7.72675L14.9403 7.01964ZM17.3246 7.01964C16.6662 6.36124 15.5987 6.36124 14.9403 7.01964L15.6474 7.72675C15.9153 7.45887 16.3496 7.45887 16.6175 7.72675L17.3246 7.01964ZM17.3246 9.40393C17.983 8.74553 17.983 7.67805 17.3246 7.01964L16.6175 7.72675C16.8853 7.99463 16.8853 8.42894 16.6175 8.69682L17.3246 9.40393ZM14.2012 12.5273L17.3246 9.40393L16.6175 8.69682L13.4941 11.8202L14.2012 12.5273ZM17.3245 14.9436L14.2012 11.8202L13.4941 12.5273L16.6174 15.6507L17.3245 14.9436ZM17.3245 17.3278C17.9829 16.6694 17.9829 15.602 17.3245 14.9436L16.6174 15.6507C16.8853 15.9185 16.8853 16.3529 16.6174 16.6207L17.3245 17.3278Z" fill="#164974" fill-opacity="0.24" mask="url(#path-1-inside-1)"/>
</svg>
