<svg width="22" height="20" viewBox="0 0 22 20" fill="none" xmlns="http://www.w3.org/2000/svg">
<path fill-rule="evenodd" clip-rule="evenodd" d="M0 2C0 0.895431 0.895431 0 2 0H20C21.1046 0 22 0.895431 22 2V18C22 19.1046 21.1046 20 20 20H2C0.89543 20 0 19.1046 0 18V2ZM19 6.5C19 7.88071 17.8807 9 16.5 9C15.1193 9 14 7.88071 14 6.5C14 5.11929 15.1193 4 16.5 4C17.8807 4 19 5.11929 19 6.5ZM2.82536 14.5144L6.15915 8.51353C6.53293 7.84072 7.49482 7.8247 7.8908 8.48467L9.46042 11.1007C9.75418 11.5903 10.3975 11.735 10.8726 11.4183L12.2129 10.5247C12.6545 10.2303 13.2492 10.3322 13.5676 10.7568L16.3 14.4C16.7944 15.0592 16.324 16 15.5 16H3.69951C2.93703 16 2.45506 15.1809 2.82536 14.5144Z" fill="#2288DD"/>
</svg>
