<svg width="12" height="21" viewBox="0 0 12 21" fill="none" xmlns="http://www.w3.org/2000/svg">
<path d="M11.6887 1.725C12.0892 1.34461 12.1054 0.711657 11.725 0.311251C11.3446 -0.0891556 10.7117 -0.105385 10.3113 0.275001L11.6887 1.725ZM1 10.5L0.311251 9.775C0.11252 9.96379 0 10.2259 0 10.5C0 10.7741 0.11252 11.0362 0.311251 11.225L1 10.5ZM10.3113 20.725C10.7117 21.1054 11.3446 21.0892 11.725 20.6887C12.1054 20.2883 12.0892 19.6554 11.6887 19.275L10.3113 20.725ZM10.3113 0.275001L0.311251 9.775L1.68875 11.225L11.6887 1.725L10.3113 0.275001ZM0.311251 11.225L10.3113 20.725L11.6887 19.275L1.68875 9.775L0.311251 11.225Z" fill="#2288DD"/>
</svg>
