<svg width="125" height="23" viewBox="0 0 125 23" fill="none" xmlns="http://www.w3.org/2000/svg">
<path d="M4.19287 0.151367V21.8574H0V0.151367H4.19287Z" fill="#2288DD"/>
<path d="M13.104 6.66016V21.8574H8.91111V6.66016H13.104ZM12.7407 0.635742C13.1847 1.05957 13.4067 1.62467 13.4067 2.33105C13.4067 3.02734 13.1847 3.5874 12.7407 4.01123C12.2967 4.43506 11.6912 4.64697 10.9243 4.64697C10.2179 4.64697 9.65281 4.43506 9.22898 4.01123C8.81524 3.5874 8.60837 3.02734 8.60837 2.33105C8.60837 1.62467 8.82029 1.05957 9.24412 0.635742C9.66794 0.211914 10.228 0 10.9243 0C11.6912 0 12.2967 0.211914 12.7407 0.635742Z" fill="#2288DD"/>
<path d="M25.8901 21.8574H21.5459L15.809 6.66016H20.1533L23.7104 16.7412L27.2827 6.66016H31.6118L25.8901 21.8574Z" fill="#2288DD"/>
<path d="M48.5605 15.6514H37.5561C37.7175 16.4788 38.1565 17.1802 38.873 17.7554C39.5895 18.3205 40.4926 18.603 41.5825 18.603C42.3696 18.603 43.0961 18.4517 43.7621 18.1489C44.4382 17.8361 44.9125 17.5233 45.185 17.2104L45.624 16.7412L47.7885 19.5264L47.516 19.7988C47.3849 19.93 47.1124 20.147 46.6987 20.4497C46.2849 20.7524 45.846 21.0249 45.3818 21.2671C44.9176 21.4992 44.3121 21.7061 43.5654 21.8877C42.8287 22.0693 42.0668 22.1602 41.2797 22.1602C39.0496 22.1602 37.1474 21.3882 35.5732 19.8442C33.999 18.2902 33.2118 16.4284 33.2118 14.2588C33.2118 12.0892 33.9889 10.2324 35.5429 8.68848C37.0969 7.13444 38.9588 6.35742 41.1283 6.35742C43.2979 6.35742 45.1043 7.08398 46.5473 8.53711C47.9903 9.98014 48.7118 11.7865 48.7118 13.9561L48.5605 15.6514ZM43.3686 10.7168C42.7631 10.1921 42.0164 9.92969 41.1283 9.92969C40.2403 9.92969 39.4835 10.187 38.8578 10.7017C38.2423 11.2163 37.8084 11.8874 37.5561 12.7148H44.5341C44.3727 11.9076 43.9841 11.2415 43.3686 10.7168Z" fill="#2288DD"/>
<path d="M61.3466 6.50879V10.7017C61.0338 10.6007 60.5696 10.5452 59.954 10.5352C58.8541 10.5352 57.9812 10.8833 57.3354 11.5796C56.6996 12.2759 56.3817 13.2749 56.3817 14.5767V21.8574H52.204V6.66016H56.3817V8.52197C56.5028 8.3807 56.6744 8.19906 56.8964 7.97705C57.1184 7.74495 57.6028 7.44222 58.3495 7.06885C59.1063 6.69548 59.8985 6.50879 60.726 6.50879H61.3466Z" fill="#2288DD"/>
<path d="M68.5624 11.3979C67.8257 12.175 67.4574 13.1336 67.4574 14.2739C67.4574 15.4041 67.8257 16.3577 68.5624 17.1348C69.299 17.9017 70.1719 18.2852 71.181 18.2852C72.1902 18.2852 73.063 17.9017 73.7997 17.1348C74.5363 16.3577 74.9047 15.4041 74.9047 14.2739C74.9047 13.1336 74.5363 12.175 73.7997 11.3979C73.063 10.6209 72.1902 10.2324 71.181 10.2324C70.1719 10.2324 69.299 10.6209 68.5624 11.3979ZM76.827 8.73389C78.4315 10.3081 79.2338 12.1497 79.2338 14.2588C79.2338 16.3678 78.4315 18.2145 76.827 19.7988C75.2326 21.373 73.3506 22.1602 71.181 22.1602C69.0114 22.1602 67.1244 21.373 65.5199 19.7988C63.9154 18.2145 63.1132 16.3678 63.1132 14.2588C63.1132 12.1497 63.9154 10.3081 65.5199 8.73389C67.1244 7.14958 69.0114 6.35742 71.181 6.35742C73.3506 6.35742 75.2326 7.14958 76.827 8.73389Z" fill="#2288DD"/>
<path d="M87.2215 11.3979C86.4849 12.175 86.1166 13.1336 86.1166 14.2739C86.1166 15.4041 86.4849 16.3577 87.2215 17.1348C87.9582 17.9017 88.8311 18.2852 89.8402 18.2852C90.8493 18.2852 91.7222 17.9017 92.4588 17.1348C93.1955 16.3577 93.5638 15.4041 93.5638 14.2739C93.5638 13.1336 93.1955 12.175 92.4588 11.3979C91.7222 10.6209 90.8493 10.2324 89.8402 10.2324C88.8311 10.2324 87.9582 10.6209 87.2215 11.3979ZM95.4862 8.73389C97.0907 10.3081 97.8929 12.1497 97.8929 14.2588C97.8929 16.3678 97.0907 18.2145 95.4862 19.7988C93.8918 21.373 92.0098 22.1602 89.8402 22.1602C87.6706 22.1602 85.7836 21.373 84.1791 19.7988C82.5746 18.2145 81.7723 16.3678 81.7723 14.2588C81.7723 12.1497 82.5746 10.3081 84.1791 8.73389C85.7836 7.14958 87.6706 6.35742 89.8402 6.35742C92.0098 6.35742 93.8918 7.14958 95.4862 8.73389Z" fill="#2288DD"/>
<path d="M120.276 21.8574V13.4868C120.276 12.5181 120.044 11.7612 119.579 11.2163C119.115 10.6613 118.52 10.3838 117.793 10.3838C116.986 10.3838 116.32 10.7017 115.795 11.3374C115.271 11.9631 115.008 12.8359 115.008 13.9561V21.8574H110.83V13.4868C110.83 12.5181 110.593 11.7612 110.119 11.2163C109.655 10.6613 109.064 10.3838 108.348 10.3838C107.541 10.3838 106.87 10.7017 106.335 11.3374C105.81 11.9631 105.548 12.8359 105.548 13.9561V21.8574H101.37V6.66016H105.548V8.52197C105.649 8.36051 105.805 8.16374 106.017 7.93164C106.229 7.68945 106.678 7.36654 107.364 6.96289C108.06 6.55924 108.802 6.35742 109.589 6.35742C110.185 6.35742 110.745 6.45329 111.269 6.64502C111.794 6.82666 112.213 7.04362 112.526 7.2959C112.839 7.53809 113.106 7.79036 113.328 8.05273C113.56 8.30501 113.716 8.52702 113.797 8.71875L113.918 8.99121C113.959 8.93066 114.024 8.83984 114.115 8.71875C114.216 8.58757 114.423 8.37565 114.736 8.08301C115.059 7.78027 115.402 7.51286 115.765 7.28076C116.128 7.03857 116.603 6.82666 117.188 6.64502C117.783 6.45329 118.399 6.35742 119.035 6.35742C120.71 6.35742 122.032 6.92253 123 8.05273C123.979 9.17285 124.469 10.8278 124.469 13.0176V21.8574H120.276Z" fill="#2288DD"/>
</svg>
