<svg width="16" height="16" viewBox="0 0 16 16" fill="none" xmlns="http://www.w3.org/2000/svg">
<path d="M3.33325 7.33333C3.33325 6.59695 3.93021 6 4.66659 6H11.3333C12.0696 6 12.6666 6.59695 12.6666 7.33333V13.3333C12.6666 14.0697 12.0696 14.6667 11.3333 14.6667H4.66659C3.93021 14.6667 3.33325 14.0697 3.33325 13.3333V7.33333Z" fill="#8598A7"/>
<path fill-rule="evenodd" clip-rule="evenodd" d="M10.0001 10.6666V4.66659C10.0001 3.56202 9.10465 2.66659 8.00008 2.66659C6.89551 2.66659 6.00008 3.56202 6.00008 4.66659V10.6666C6.00008 11.7712 6.89551 12.6666 8.00008 12.6666C9.10465 12.6666 10.0001 11.7712 10.0001 10.6666ZM8.00008 1.33325C6.15913 1.33325 4.66675 2.82564 4.66675 4.66659V10.6666C4.66675 12.5075 6.15913 13.9999 8.00008 13.9999C9.84103 13.9999 11.3334 12.5075 11.3334 10.6666V4.66659C11.3334 2.82564 9.84103 1.33325 8.00008 1.33325Z" fill="#8598A7"/>
</svg>
