<svg width="131" height="44" viewBox="0 0 131 44" fill="none" xmlns="http://www.w3.org/2000/svg">
<g clip-path="url(#clip0)">
<path d="M120.568 0.000143H10.4379C10.0365 0.000143 9.63985 0.000143 9.23948 0.00234299C8.90433 0.00454299 8.57184 0.010934 8.23347 0.0163129C7.49838 0.0250049 6.76501 0.0899866 6.03974 0.210693C5.31549 0.334028 4.61393 0.566548 3.95879 0.900391C3.30445 1.23706 2.70655 1.67452 2.1868 2.19691C1.66432 2.71783 1.2288 3.31995 0.896968 3.98011C0.564225 4.63895 0.333499 5.34496 0.212761 6.07375C0.0908747 6.80162 0.0252865 7.53789 0.0165852 8.27594C0.00642607 8.6132 0.00535324 8.95158 0 9.28889V34.7145C0.00535324 35.056 0.00642607 35.3869 0.0165852 35.7286C0.0252892 36.4666 0.0908774 37.2028 0.212761 37.9307C0.333166 38.6599 0.563905 39.3663 0.896968 40.0254C1.22864 40.6834 1.66423 41.2831 2.1868 41.8011C2.70458 42.3258 3.30286 42.7636 3.95879 43.0977C4.61393 43.4324 5.31541 43.6663 6.03974 43.7916C6.76513 43.9113 7.49842 43.9763 8.23347 43.986C8.57184 43.9935 8.90433 43.9978 9.23948 43.9978C9.63984 44 10.0365 44 10.4379 44H120.568C120.961 44 121.361 44 121.755 43.9978C122.088 43.9978 122.43 43.9935 122.764 43.986C123.498 43.9768 124.229 43.9118 124.953 43.7916C125.68 43.6654 126.384 43.4316 127.042 43.0977C127.698 42.7634 128.295 42.3256 128.813 41.8011C129.334 41.2811 129.77 40.6818 130.106 40.0254C130.437 39.3658 130.665 38.6595 130.784 37.9307C130.906 37.2027 130.974 36.4667 130.987 35.7286C130.991 35.3869 130.991 35.056 130.991 34.7145C131 34.3149 131 33.9174 131 33.5113V10.4899C131 10.087 131 9.68742 130.991 9.28889C130.991 8.95158 130.991 8.6132 130.987 8.2759C130.974 7.53778 130.906 6.80168 130.784 6.07371C130.665 5.34534 130.437 4.63938 130.106 3.98006C129.431 2.65685 128.359 1.57977 127.042 0.900292C126.384 0.567265 125.68 0.334806 124.953 0.210594C124.23 0.0893558 123.498 0.0243515 122.764 0.0161589C122.43 0.010791 122.088 0.00434499 121.755 0.00219999C121.361 0 120.961 0 120.568 0V0.000143Z" fill="black"/>
<path d="M50.1913 9.83266C52.7335 8.95754 54.9684 12.2371 53.4063 14.3724C52.4609 15.9214 50.0377 16.0767 48.8779 14.7071C47.4935 13.2128 48.1577 10.3402 50.1913 9.83266ZM50.3947 10.6728C48.8651 11.1694 48.5252 13.4732 49.8493 14.3965C51.0327 15.4269 53.071 14.3636 52.982 12.8059C53.1878 11.4166 51.6971 10.1783 50.3947 10.6728Z" fill="white"/>
<path d="M55.4875 10.3489C56.6364 9.40158 58.4364 9.58535 59.4554 10.6508C59.2823 10.863 59.1071 11.0774 58.934 11.2897C58.2287 10.7011 57.2378 10.292 56.3746 10.8105C54.9358 11.5216 54.9445 13.856 56.3832 14.5648C57.2876 15.1227 58.3412 14.6261 59.0487 13.9829C59.2412 14.182 59.4335 14.3832 59.6285 14.5823C58.6138 15.7681 56.7142 16.0154 55.4919 15.0265C54.064 13.9347 54.0596 11.445 55.4875 10.3489Z" fill="white"/>
<path d="M81.3478 9.83266C83.8856 8.95972 86.1248 12.2415 84.5585 14.3746C83.6154 15.9214 81.1921 16.0767 80.0324 14.7071C78.6478 13.2128 79.3118 10.3402 81.3478 9.83266ZM81.5488 10.6728C80.0171 11.1694 79.6776 13.4754 81.0036 14.3965C82.1892 15.4269 84.2229 14.3614 84.1364 12.8059C84.3399 11.421 82.8515 10.1761 81.5488 10.6728Z" fill="white"/>
<path d="M43.3567 9.85448C44.618 9.84113 45.8772 9.84113 47.1363 9.85667C47.1471 11.4406 47.1342 13.0268 47.145 14.613C47.2878 14.6371 47.5712 14.6852 47.714 14.7114C47.7077 15.3765 47.7053 16.0438 47.7053 16.7089C47.4414 16.7111 47.1755 16.7133 46.9113 16.7155C46.9027 16.3042 46.8897 15.8929 46.881 15.4816C45.5808 15.4816 44.2803 15.4816 42.9802 15.4816C42.9608 15.8863 42.9348 16.2889 42.9175 16.6936C42.6603 16.7024 42.4004 16.7111 42.143 16.722C42.1386 16.0679 42.1367 15.4137 42.1386 14.7596C42.5454 14.6611 42.9995 14.5058 43.1057 14.0376C43.5319 12.6877 43.2918 11.2459 43.3567 9.85448ZM44.1853 10.7559C44.2048 12.0664 44.2956 13.4097 43.8521 14.6677C44.6396 14.6611 45.4293 14.6611 46.2168 14.6677C46.2709 13.3504 46.2688 12.0314 46.219 10.7121C45.5418 10.7165 44.8625 10.723 44.1853 10.7559Z" fill="white"/>
<path d="M59.9399 9.85453C61.2424 9.84119 62.547 9.84578 63.8513 9.85235C63.8513 10.0668 63.8513 10.4956 63.8513 10.71C63.3451 10.7209 62.841 10.7319 62.3369 10.7472C62.3434 12.3158 62.3347 13.8867 62.3455 15.4554C62.0429 15.4597 61.7419 15.4619 61.4434 15.4663C61.4457 13.8954 61.439 12.3268 61.4498 10.7581C60.9458 10.7362 60.4417 10.7209 59.9376 10.7034C59.9378 10.4912 59.9399 10.0668 59.9399 9.85453Z" fill="white"/>
<path d="M64.1307 9.86978C64.453 9.85447 64.7776 9.83915 65.1021 9.82165C65.591 10.8149 65.9761 11.8541 66.4564 12.8518C67.1574 11.8344 67.0514 9.5613 68.7045 9.83697C67.9992 11.5413 67.2572 13.2347 66.461 14.8952C66.1319 15.65 65.2579 15.7397 64.5701 15.5012C64.6547 15.2759 64.741 15.0527 64.8297 14.8296C65.1066 14.7858 65.3836 14.7421 65.6627 14.6983C65.7578 14.3964 66.0305 14.0792 65.8682 13.751C65.3163 12.4448 64.6997 11.1694 64.1307 9.86978Z" fill="white"/>
<path d="M69.1824 9.86337C70.5411 9.83274 71.8976 9.84806 73.2563 9.85243C73.2455 11.7296 73.2518 13.6045 73.2518 15.4817C72.975 15.4817 72.6979 15.4817 72.4231 15.4817C72.4188 13.8933 72.4578 12.305 72.3972 10.7188C71.6077 10.7232 70.8202 10.7232 70.0325 10.7166C69.9784 12.305 70.0152 13.8955 70.0065 15.4839C69.7317 15.4795 69.4594 15.4773 69.1844 15.4729C69.1803 13.6045 69.1846 11.734 69.1824 9.86337Z" fill="white"/>
<path d="M74.3749 9.87194C74.6496 9.861 74.9244 9.85006 75.2011 9.84131C75.1968 10.6204 75.1968 11.4012 75.2011 12.1801C76.073 12.1888 76.9451 12.1888 77.8192 12.1801C77.8235 11.4012 77.8235 10.6202 77.8192 9.84131C78.0939 9.85006 78.3687 9.861 78.6454 9.87194C78.6433 11.7381 78.6478 13.6065 78.6433 15.4728C78.3685 15.4771 78.0937 15.4793 77.8211 15.4837C77.8233 14.6589 77.8233 13.8363 77.8166 13.0115C76.9449 13.0027 76.0728 13.0027 75.2033 13.0136C75.1968 13.8363 75.1968 14.6591 75.1987 15.4837C74.924 15.4793 74.6492 15.4771 74.3766 15.4728C74.3725 13.6065 74.377 11.7381 74.3749 9.87194Z" fill="white"/>
<path d="M87.7885 9.86558C88.9006 9.93121 90.3109 9.5024 91.159 10.4519C91.7218 11.082 91.4619 11.9703 91.0379 12.596C91.871 13.2939 91.8751 14.7379 90.867 15.2739C89.902 15.6786 88.8073 15.4161 87.7905 15.4708C87.7861 13.6024 87.7907 11.734 87.7885 9.86558ZM88.6106 10.7232C88.6106 11.2133 88.6128 11.7012 88.615 12.1912C89.3008 12.119 90.4777 12.4822 90.584 11.478C90.5359 10.4235 89.3092 10.7735 88.6106 10.7232ZM88.6148 13.0029C88.6126 13.5542 88.6104 14.1078 88.6104 14.6591C89.1188 14.6613 89.6316 14.6941 90.1379 14.6263C90.8496 14.5191 90.9362 13.3639 90.2765 13.1123C89.7443 12.9307 89.1667 13.0248 88.6148 13.0029Z" fill="white"/>
<path d="M43.9084 20.5158C46.1478 18.514 49.8559 18.5599 51.9912 20.704C51.6081 21.1066 51.2189 21.5025 50.8273 21.8985C49.222 20.4524 46.5998 20.3299 45.0181 21.8723C43.0125 23.6291 43.2245 27.2018 45.4486 28.6766C47.6186 30.3501 51.422 29.219 51.753 26.2897C50.4528 26.2239 49.1482 26.2744 47.8458 26.2501C47.8436 25.6706 47.8436 25.0928 47.8458 24.5132C49.6977 24.5023 51.5497 24.4979 53.4016 24.5176C53.8389 27.0401 52.6141 29.8952 50.1241 30.7704C47.3852 31.8227 44.0012 30.6851 42.5735 28.0619C41.1326 25.6463 41.7579 22.2902 43.9084 20.5158Z" fill="white"/>
<path d="M101.187 19.4678C101.767 19.4724 102.347 19.4724 102.929 19.4678C102.994 23.2792 102.952 27.0945 102.948 30.9079C102.358 30.9057 101.769 30.9079 101.181 30.9101C101.174 27.0967 101.161 23.2811 101.187 19.4678Z" fill="white"/>
<path d="M79.273 19.4744C79.8506 19.4744 80.4305 19.4787 81.0081 19.4941C80.9886 23.2989 81.0081 27.1011 80.9997 30.9057C80.4242 30.9057 79.8528 30.9057 79.2797 30.9079C79.2576 27.0967 79.2686 23.2856 79.273 19.4744Z" fill="white"/>
<path d="M92.5201 19.481C93.9608 19.481 95.4016 19.4526 96.8425 19.4832C98.6967 19.5029 100.434 21.1678 100.319 23.0885C100.369 24.8825 98.807 26.4227 97.0827 26.5608C96.1567 26.6218 95.2286 26.5715 94.3024 26.5914C94.3024 28.0286 94.3132 29.4682 94.2937 30.9078C93.7033 30.9056 93.1148 30.9078 92.5261 30.91C92.5112 27.101 92.5244 23.2898 92.5201 19.481ZM94.3006 21.1241C94.3052 22.3886 94.3115 23.6532 94.2961 24.9156C95.8603 25.0271 98.4479 25.2919 98.5842 23.08C98.5606 20.7871 95.8865 21.0212 94.3006 21.1241Z" fill="white"/>
<path d="M56.911 23.4434C58.3735 23.0999 60.0329 23.5941 60.9457 24.8305C62.1703 26.4101 61.9453 28.9261 60.4157 30.2213C58.6353 31.8271 55.4136 31.2845 54.3903 29.0551C53.2395 26.9218 54.5074 23.9026 56.911 23.4434ZM57.1036 25.0731C55.3554 25.7185 55.26 28.5233 56.9175 29.335C58.2416 30.0786 59.9488 28.9433 59.9788 27.46C60.219 25.9152 58.5834 24.4209 57.1036 25.0731Z" fill="white"/>
<path d="M65.3443 23.4321C66.7528 23.128 68.3408 23.57 69.2581 24.7251C70.6752 26.3988 70.3312 29.2845 68.4706 30.4815C66.6013 31.8117 63.6436 31.0875 62.7178 28.9325C61.688 26.7773 62.9645 23.8762 65.3443 23.4321ZM65.3465 25.1408C63.8385 25.854 63.6916 28.2473 65.0674 29.1749C66.1537 30.0304 67.8737 29.385 68.2412 28.0747C69.0136 26.3507 67.0946 24.1935 65.3465 25.1408Z" fill="white"/>
<path d="M70.7682 27.2434C70.5822 24.4058 74.2534 22.0713 76.4796 24.117C76.5013 23.9791 76.5402 23.7035 76.5597 23.5656C77.1027 23.5744 77.6436 23.5766 78.1869 23.5788C78.1758 26.0291 78.2104 28.4795 78.1717 30.9276C78.1585 32.4265 77.3366 34.0147 75.8327 34.4393C73.9765 35.1108 71.798 34.1547 71.0387 32.3106C71.5317 32.0962 72.0272 31.8863 72.5207 31.6761C73.0637 32.595 74.0805 33.3717 75.1882 32.9538C76.3195 32.6606 76.5967 31.3591 76.5359 30.3352C74.3142 32.4329 70.5519 30.1313 70.7682 27.2434ZM73.7712 25.1214C72.194 25.8543 72.075 28.4379 73.6154 29.2804C74.7534 30.0374 76.3392 29.1907 76.5664 27.891C77.0878 26.2632 75.4565 24.2463 73.7712 25.1214Z" fill="white"/>
<path d="M84.1193 23.5722C86.1722 22.6837 88.4463 24.2044 88.9179 26.2958C87.2152 27.0243 85.5017 27.7225 83.7969 28.4423C84.5323 29.9759 86.6571 29.8096 87.5506 28.5188C87.9681 28.8207 88.5047 29.0176 88.8097 29.4465C87.5571 31.5249 84.2988 31.7196 82.7474 29.895C81.0406 28.0266 81.6551 24.4429 84.1193 23.5722ZM83.4378 27.0552C84.6234 26.6526 85.7679 26.1317 86.9145 25.6265C85.7592 24.0688 83.4572 25.3115 83.4378 27.0552Z" fill="white"/>
<path d="M103.982 25.1256C105.125 22.4368 109.856 22.789 110.412 25.7336C110.562 27.4532 110.443 29.1862 110.471 30.91C109.926 30.9078 109.383 30.9056 108.84 30.91C108.818 30.7459 108.779 30.4155 108.76 30.2493C107.684 31.3298 105.865 31.4351 104.684 30.4768C103.554 29.6192 103.502 27.6873 104.632 26.8056C105.819 25.8167 107.49 25.8627 108.876 26.3484C108.582 24.7316 106.352 24.4669 105.46 25.7205C104.967 25.5218 104.474 25.3225 103.982 25.1256ZM105.583 28.8908C106.462 30.3042 108.775 29.2783 108.798 27.7313C107.721 27.2651 105.406 27.2018 105.583 28.8908Z" fill="white"/>
<path d="M110.536 23.6075C111.159 23.5788 111.784 23.5725 112.409 23.5701C113.117 25.1761 113.659 26.8518 114.443 28.4248C115.105 26.8146 115.693 25.1781 116.359 23.5701C117 23.5747 117.642 23.5766 118.287 23.5834C116.759 27.1693 115.191 30.7398 113.676 34.3322C113.064 34.3497 112.45 34.3541 111.838 34.3475C112.385 33.063 112.967 31.7919 113.532 30.5142C112.554 28.2019 111.537 25.9067 110.536 23.6075Z" fill="white"/>
<path d="M14.2295 10.2132C14.8699 9.9529 15.5795 9.95727 16.168 10.3401C20.5686 12.8518 24.9648 15.3743 29.3502 17.9144C28.0694 19.1636 26.8622 20.4894 25.5491 21.7035C25.508 21.7407 25.4278 21.8129 25.389 21.85C21.8169 17.8312 17.6824 14.3329 14.2295 10.2132Z" fill="#01EE76"/>
<path d="M13.7729 11.9133C13.7426 11.3073 13.9633 10.7428 14.2294 10.2134C17.6823 14.333 21.8168 17.8314 25.3887 21.8502C21.648 25.5238 18.0068 29.3021 14.3094 33.0214L14.1707 33.0827C13.7945 32.6189 13.7835 31.9734 13.7618 31.4022C13.7772 24.9068 13.7621 18.409 13.7729 11.9133Z" fill="#00D3FF"/>
<path d="M25.5488 21.7036C26.862 20.4896 28.0692 19.1638 29.35 17.9146C30.9251 18.8466 32.5693 19.6714 34.0903 20.6931C34.9254 21.2072 34.7826 22.4893 33.9561 22.9356C32.4549 23.8807 30.884 24.7165 29.3457 25.6045C28.0498 24.3358 26.7495 23.0669 25.5488 21.7036Z" fill="#FFCB00"/>
<path d="M25.3889 21.8502C25.4278 21.813 25.5079 21.7408 25.549 21.7036C26.7497 23.0668 28.05 24.3358 29.3459 25.6047C25.0038 28.1076 20.6465 30.5842 16.3043 33.0893C15.6985 33.4568 14.8591 33.7148 14.2706 33.1678L14.3098 33.0212C18.007 29.3021 21.6482 25.5238 25.3889 21.8502Z" fill="#F3324A"/>
</g>
<defs>
<clipPath id="clip0">
<rect width="131" height="44" fill="white"/>
</clipPath>
</defs>
</svg>
