<svg width="47" height="13" viewBox="0 0 47 13" fill="none" xmlns="http://www.w3.org/2000/svg">
<g filter="url(#filter0_b)">
<path fill-rule="evenodd" clip-rule="evenodd" d="M47 12.997C45.2875 12.997 43.5755 13.0055 41.863 12.987C40.224 12.969 38.3896 12.9435 36.7945 12.342C35.0716 11.692 33.9309 10.5555 32.7832 9.21793C31.957 8.25591 30.334 6.20337 29.5437 5.21235C28.8969 4.39983 27.6308 2.7938 26.9395 2.01678C26.0692 1.03926 24.9936 0.000236511 23.4995 0.000236511C22.0054 0.000236511 20.9303 1.03926 20.0605 2.01578C19.3692 2.7923 18.1031 4.39933 17.4558 5.21135C16.6665 6.20237 15.0435 8.25491 14.2168 9.21693C13.0671 10.5545 11.9284 11.691 10.206 12.341C8.61043 12.941 6.77548 12.968 5.13747 12.986C3.42448 13.0045 1.71249 12.996 0 12.996" fill="#fff" fill-opacity="1"/>
</g>
<defs>
<filter id="filter0_b" x="-54.3656" y="-54.3654" width="155.731" height="121.73" filterUnits="userSpaceOnUse" color-interpolation-filters="sRGB">
<feFlood flood-opacity="0" result="BackgroundImageFix"/>
<feGaussianBlur in="BackgroundImage" stdDeviation="27.1828"/>
<feComposite in2="SourceAlpha" operator="in" result="effect1_backgroundBlur"/>
<feBlend mode="normal" in="SourceGraphic" in2="effect1_backgroundBlur" result="shape"/>
</filter>
</defs>
</svg>
