<svg width="24" height="24" viewBox="0 0 24 24" fill="none" xmlns="http://www.w3.org/2000/svg">
<path d="M5 11C5 9.89543 5.89543 9 7 9H17C18.1046 9 19 9.89543 19 11V20C19 21.1046 18.1046 22 17 22H7C5.89543 22 5 21.1046 5 20V11Z" fill="#333333"/>
<path fill-rule="evenodd" clip-rule="evenodd" d="M15 16V7C15 5.34315 13.6569 4 12 4C10.3431 4 9 5.34315 9 7V16C9 17.6569 10.3431 19 12 19C13.6569 19 15 17.6569 15 16ZM12 2C9.23858 2 7 4.23858 7 7V16C7 18.7614 9.23858 21 12 21C14.7614 21 17 18.7614 17 16V7C17 4.23858 14.7614 2 12 2Z" fill="#333333"/>
</svg>
