<svg width="18" height="22" viewBox="0 0 18 22" fill="none" xmlns="http://www.w3.org/2000/svg">
<path d="M11.8132 21H9.40635C8.62227 21 7.84746 20.8278 7.13512 20.4953C6.42278 20.1628 5.78976 19.6779 5.27953 19.0737L1.55793 14.667C1.23766 14.3035 1.04396 13.8433 1.00663 13.3572C0.969298 12.8711 1.09041 12.386 1.35133 11.9765C1.51626 11.7299 1.72965 11.5206 1.9781 11.3616C2.22656 11.2027 2.50471 11.0976 2.79509 11.0529C3.08548 11.0082 3.38183 11.0249 3.66555 11.102C3.94927 11.1791 4.21422 11.3148 4.44377 11.5008L5.58945 12.4311V5.02636C5.58098 4.58955 5.72152 4.16319 5.98726 3.81945C6.25301 3.47571 6.62764 3.23571 7.04773 3.14008C7.43141 3.06324 7.82928 3.11351 8.18267 3.28348V2.94809C8.17243 2.49856 8.31825 2.05969 8.59463 1.70823C8.87101 1.35678 9.26035 1.11511 9.69456 1.0255C10.1245 0.952194 10.5662 1.03815 10.9389 1.26771C11.3116 1.49726 11.5906 1.85511 11.7251 2.276C12.0787 2.08138 12.486 2.01117 12.8831 2.07635C13.3203 2.16472 13.7128 2.40677 13.9914 2.75989C14.2701 3.11301 14.417 3.55456 14.4064 4.00681V4.33609C14.7598 4.16614 15.1577 4.11589 15.5413 4.19275C15.9614 4.28837 16.3361 4.52836 16.6018 4.87209C16.8676 5.21583 17.0081 5.64218 16.9996 6.07899V15.7369C16.9996 17.1328 16.4532 18.4715 15.4806 19.4585C14.5079 20.4455 13.1887 21 11.8132 21ZM3.11575 12.0806C2.90705 12.081 2.70283 12.142 2.52719 12.2564C2.35155 12.3708 2.21183 12.5338 2.12451 12.7262C2.03718 12.9185 2.0059 13.1322 2.03436 13.342C2.06282 13.5519 2.14982 13.749 2.28511 13.9103L6.06743 18.3889C6.48025 18.8777 6.99241 19.2701 7.56875 19.5391C8.14509 19.8081 8.77197 19.9474 9.40635 19.9474H11.8132C12.9136 19.9474 13.969 19.5038 14.7471 18.7142C15.5252 17.9246 15.9623 16.8536 15.9623 15.7369V6.00027C15.9623 5.79089 15.8804 5.59009 15.7345 5.44204C15.5886 5.29399 15.3907 5.21081 15.1844 5.21081C14.9781 5.21081 14.7802 5.29399 14.6343 5.44204C14.4884 5.59009 14.4064 5.79089 14.4064 6.00027V10.4739C14.4064 10.6135 14.3518 10.7473 14.2545 10.846C14.1572 10.9447 14.0253 11.0002 13.8878 11.0002C13.7502 11.0002 13.6183 10.9447 13.521 10.846C13.4238 10.7473 13.3691 10.6135 13.3691 10.4739V3.89505C13.3691 3.68567 13.2872 3.48487 13.1413 3.33682C12.9954 3.18876 12.7975 3.10559 12.5912 3.10559C12.3848 3.10559 12.1869 3.18876 12.041 3.33682C11.8952 3.48487 11.8132 3.68567 11.8132 3.89505V10.4739C11.8132 10.6135 11.7585 10.7473 11.6613 10.846C11.564 10.9447 11.4321 11.0002 11.2945 11.0002C11.157 11.0002 11.0251 10.9447 10.9278 10.846C10.8305 10.7473 10.7759 10.6135 10.7759 10.4739V2.84244C10.7759 2.63306 10.6939 2.43226 10.548 2.2842C10.4021 2.13615 10.2043 2.05298 9.99793 2.05298C9.7916 2.05298 9.59372 2.13615 9.44783 2.2842C9.30193 2.43226 9.21996 2.63306 9.21996 2.84244V10.4739C9.21996 10.6135 9.16532 10.7473 9.06806 10.846C8.97079 10.9447 8.83887 11.0002 8.70132 11.0002C8.56377 11.0002 8.43185 10.9447 8.33458 10.846C8.23732 10.7473 8.18267 10.6135 8.18267 10.4739V4.94766C8.18267 4.73828 8.10071 4.53748 7.95481 4.38943C7.80891 4.24138 7.61104 4.1582 7.40471 4.1582C7.19838 4.1582 7.0005 4.24138 6.8546 4.38943C6.7087 4.53748 6.62674 4.73828 6.62674 4.94766V13.1054C6.62678 13.1745 6.61339 13.243 6.58734 13.3069C6.56129 13.3707 6.52309 13.4288 6.47492 13.4777C6.42675 13.5265 6.36956 13.5653 6.30662 13.5917C6.24367 13.6182 6.17621 13.6318 6.10809 13.6317H5.58945C5.47171 13.6314 5.35751 13.5908 5.26529 13.5166L3.79545 12.3231C3.6028 12.1659 3.36296 12.0803 3.11575 12.0806Z" fill="white" stroke="white" stroke-width="0.5"/>
</svg>
