<svg width="24" height="24" viewBox="0 0 24 24" fill="none" xmlns="http://www.w3.org/2000/svg">
<rect width="24" height="24" rx="10" fill="white"/>
<path fill-rule="evenodd" clip-rule="evenodd" d="M11.9652 3.97437C10.7071 3.97437 9.68712 4.99432 9.68712 6.25249V12.5174C9.68712 13.7755 10.7071 14.7955 11.9652 14.7955C13.2234 14.7955 14.2434 13.7755 14.2434 12.5174V6.25249C14.2434 4.99432 13.2234 3.97437 11.9652 3.97437ZM8.26329 10.8088C8.26329 10.3369 7.8808 9.95446 7.40899 9.95446C6.93717 9.95446 6.55469 10.3369 6.55469 10.8088V12.6483C6.55469 15.3457 8.5287 17.5822 11.1109 17.9917V19.067H9.62203C9.15021 19.067 8.76773 19.4495 8.76773 19.9213C8.76773 20.3931 9.15021 20.7756 9.62203 20.7756H14.3085C14.7803 20.7756 15.1628 20.3931 15.1628 19.9213C15.1628 19.4495 14.7803 19.067 14.3085 19.067H12.8195V17.9917C15.4018 17.5822 17.3758 15.3457 17.3758 12.6483V10.8088C17.3758 10.3369 16.9933 9.95446 16.5215 9.95446C16.0497 9.95446 15.6672 10.3369 15.6672 10.8088V12.6483C15.6672 14.6928 14.0098 16.3502 11.9652 16.3502C9.92071 16.3502 8.26329 14.6928 8.26329 12.6483V10.8088Z" fill="#333333"/>
<path d="M19.43 15.221L19.4285 15.2196L6.9003 3.83034C6.90001 3.83008 6.89973 3.82982 6.89945 3.82956C6.34806 3.32497 5.49199 3.36246 4.98684 3.91354C4.48142 4.4649 4.51867 5.32158 5.07003 5.827L5.07003 5.827L5.07156 5.82839L17.5997 17.2176C17.6001 17.2179 17.6004 17.2182 17.6007 17.2185C18.1521 17.723 19.0081 17.6855 19.5132 17.1345C20.0186 16.5831 19.9814 15.7264 19.43 15.221Z" fill="#FF6D6D" stroke="white" stroke-linecap="round"/>
</svg>
