<svg width="21" height="22" viewBox="0 0 21 22" fill="none" xmlns="http://www.w3.org/2000/svg">
<path d="M10.1035 21.9768C15.528 21.9768 20.0193 17.4855 20.0193 12.0609C20.0193 8.79453 18.3667 5.85865 15.8683 4.04074C15.4405 3.71021 14.9059 3.81714 14.6628 4.21572C14.4198 4.62403 14.5462 5.08093 14.9447 5.3823C17.0154 6.85996 18.357 9.30005 18.3667 12.0609C18.3764 16.6495 14.692 20.3242 10.1035 20.3242C5.51492 20.3242 1.84993 16.6495 1.84993 12.0609C1.84993 8.12375 4.5525 4.84762 8.22721 4.01157V5.41146C8.22721 6.10169 8.70356 6.2864 9.23824 5.90726L12.3394 3.72965C12.7769 3.42829 12.7866 2.96166 12.3394 2.64085L9.24796 0.463241C8.70356 0.0743827 8.22721 0.25909 8.22721 0.959036V2.32976C3.67757 3.21441 0.187561 7.27798 0.187561 12.0609C0.187561 17.4855 4.6886 21.9768 10.1035 21.9768ZM7.21618 16.0467C7.59531 16.0467 7.83835 15.7843 7.83835 15.376V9.24172C7.83835 8.74592 7.58559 8.48345 7.14813 8.48345C6.87593 8.48345 6.6815 8.57094 6.34125 8.80425L4.99968 9.70835C4.77609 9.87361 4.66915 10.0486 4.66915 10.2722C4.66915 10.593 4.92191 10.8652 5.233 10.8652C5.42743 10.8652 5.52464 10.8263 5.70935 10.6805L6.62317 10.0097V15.376C6.62317 15.7745 6.85648 16.0467 7.21618 16.0467ZM12.1547 16.1634C13.7684 16.1634 14.8378 15.1232 14.8378 13.558C14.8378 12.129 13.8754 11.1082 12.4852 11.1082C11.9116 11.1082 11.2895 11.3707 10.9978 11.8082L11.1631 9.70835H14.0795C14.3615 9.70835 14.6045 9.47503 14.6045 9.14451C14.6045 8.81398 14.3615 8.6001 14.0795 8.6001H10.9687C10.4631 8.6001 10.1812 8.89175 10.1326 9.40698L9.91874 12.2068C9.87986 12.6928 10.1326 12.9262 10.5604 12.9262C10.8812 12.9262 11.0173 12.8678 11.2992 12.654C11.6686 12.3137 11.97 12.1776 12.3491 12.1776C13.1074 12.1776 13.6129 12.7317 13.6129 13.5775C13.6129 14.433 13.0199 15.0552 12.213 15.0552C11.6394 15.0552 11.1436 14.7246 10.8909 14.2191C10.7451 13.9663 10.5701 13.8302 10.327 13.8302C10.0062 13.8302 9.78264 14.0636 9.78264 14.3941C9.78264 14.5302 9.81181 14.6566 9.86041 14.783C10.1229 15.4829 10.9784 16.1634 12.1547 16.1634Z" fill="#2288DD"/>
</svg>
