<svg width="24" height="24" viewBox="0 0 24 24" fill="none" xmlns="http://www.w3.org/2000/svg">
<path fill-rule="evenodd" clip-rule="evenodd" d="M22 12C22 17.5228 17.5228 22 12 22C6.47715 22 2 17.5228 2 12C2 6.47715 6.47715 2 12 2C17.5228 2 22 6.47715 22 12ZM8.81818 11.0909C9.5713 11.0909 10.1818 10.4804 10.1818 9.72727C10.1818 8.97416 9.5713 8.36364 8.81818 8.36364C8.06507 8.36364 7.45455 8.97416 7.45455 9.72727C7.45455 10.4804 8.06507 11.0909 8.81818 11.0909ZM15.1818 11.0909C15.9349 11.0909 16.5455 10.4804 16.5455 9.72727C16.5455 8.97416 15.9349 8.36364 15.1818 8.36364C14.4287 8.36364 13.8182 8.97416 13.8182 9.72727C13.8182 10.4804 14.4287 11.0909 15.1818 11.0909ZM7.36367 14.7807C7.30576 14.6804 7.27262 14.5641 7.27262 14.44C7.27262 14.0635 7.57788 13.7582 7.95444 13.7582C8.22227 13.7582 8.45402 13.9126 8.56553 14.1373C9.03094 14.7735 10.2459 15.8442 12.0377 15.8442C13.8816 15.8442 15.0158 14.731 15.3951 14.115C15.4038 14.0989 15.4132 14.0832 15.4232 14.068L15.4339 14.049L15.4354 14.0499C15.5586 13.8736 15.7631 13.7583 15.9946 13.7583C16.3711 13.7583 16.6764 14.0635 16.6764 14.4401C16.6764 14.6178 16.6084 14.7797 16.497 14.901C15.8806 15.7543 14.2825 17.2165 12.0377 17.2165C9.66052 17.2165 7.92784 15.5949 7.35864 14.7841L7.36367 14.7807Z" fill="#8598A7"/>
</svg>
