<svg width="24" height="24" viewBox="0 0 24 24" fill="none" xmlns="http://www.w3.org/2000/svg">
<path d="M2 5C2 2.79086 3.79086 1 6 1H18C20.2091 1 22 2.79086 22 5V7V19C22 21.2091 20.2091 23 18 23H6C3.79086 23 2 21.2091 2 19V7V5Z" stroke="#2288DD" stroke-width="2"/>
<path fill-rule="evenodd" clip-rule="evenodd" d="M12 9.85791C12.5523 9.85791 13 10.3056 13 10.8579V13.8579H16C16.5523 13.8579 17 14.3056 17 14.8579C17 15.4102 16.5523 15.8579 16 15.8579H13V18.8579C13 19.4102 12.5523 19.8579 12 19.8579C11.4477 19.8579 11 19.4102 11 18.8579V15.8579H8C7.44772 15.8579 7 15.4102 7 14.8579C7 14.3056 7.44772 13.8579 8 13.8579H11V10.8579C11 10.3056 11.4477 9.85791 12 9.85791Z" fill="#2288DD"/>
</svg>
