<svg width="25" height="24" viewBox="0 0 25 24" fill="none" xmlns="http://www.w3.org/2000/svg">
<g clip-path="url(#clip0)">
<path d="M15.1585 19.1477C17.555 19.1477 19.4647 17.2068 19.4647 14.8554V4.29238C19.4647 1.90358 17.5176 0 15.1585 0H9.84141C7.44495 0 5.53528 1.9409 5.53528 4.29238V5.11353C5.53528 5.52411 5.87228 5.86003 6.28417 5.86003H9.12996C9.54185 5.86003 9.87885 6.19596 9.87885 6.60653V7.39036C9.87885 7.80093 9.54185 8.13686 9.12996 8.13686H6.28417C5.87228 8.13686 5.53528 8.47278 5.53528 8.88336V10.0031C5.53528 10.4137 5.87228 10.7496 6.28417 10.7496H9.12996C9.54185 10.7496 9.87885 11.0855 9.87885 11.4961V12.2799C9.87885 12.6905 9.54185 13.0264 9.12996 13.0264H6.28417C5.87228 13.0264 5.53528 13.3624 5.53528 13.7729V14.8554C5.53528 17.2442 7.4824 19.1477 9.84141 19.1477H11.3392V21.6858H7.33262C6.69606 21.6858 6.17184 22.2084 6.17184 22.8429C6.17184 23.4775 6.69606 24 7.33262 24H17.6299C18.2664 24 18.7907 23.4775 18.7907 22.8429C18.7907 22.2084 18.2664 21.6858 17.6299 21.6858H13.6608V19.1477H15.1585Z" fill="#fff"/>
</g>
<defs>
<clipPath id="clip0">
<rect width="24" height="24" fill="white" transform="translate(0.5)"/>
</clipPath>
</defs>
</svg>
