<svg width="20" height="22" viewBox="0 0 20 22" fill="none" xmlns="http://www.w3.org/2000/svg">
<path d="M10.0288 21.977C15.4534 21.977 19.9447 17.4857 19.9447 12.0612C19.9447 7.2782 16.4547 3.22435 11.905 2.32998V0.949528C11.905 0.259304 11.4287 0.0745962 10.9037 0.453733L7.80259 2.62162C7.3554 2.93271 7.34568 3.39934 7.80259 3.72014L10.894 5.89775C11.4287 6.28661 11.905 6.1019 11.905 5.40196V4.01179C15.5798 4.84783 18.2823 8.12397 18.2823 12.0612C18.2823 16.6497 14.6173 20.3244 10.0288 20.3244C5.44028 20.3244 1.75584 16.6497 1.76556 12.0612C1.77528 9.30026 3.11685 6.86018 5.18752 5.38251C5.5861 5.08115 5.71248 4.62424 5.46944 4.21594C5.2264 3.81736 4.69172 3.71042 4.26398 4.04095C1.76556 5.85887 0.112915 8.79475 0.112915 12.0612C0.112915 17.4857 4.61395 21.977 10.0288 21.977ZM7.14153 16.047C7.52067 16.047 7.7637 15.7845 7.7637 15.3762V9.24193C7.7637 8.74614 7.51095 8.48366 7.07348 8.48366C6.80128 8.48366 6.60685 8.57115 6.2666 8.80447L4.92504 9.70856C4.70144 9.87383 4.59451 10.0488 4.59451 10.2724C4.59451 10.5932 4.84727 10.8654 5.15835 10.8654C5.35278 10.8654 5.45 10.8265 5.6347 10.6807L6.54852 10.0099V15.3762C6.54852 15.7748 6.78184 16.047 7.14153 16.047ZM12.08 16.1636C13.6938 16.1636 14.7632 15.1234 14.7632 13.5583C14.7632 12.1292 13.8007 11.1085 12.4106 11.1085C11.837 11.1085 11.2148 11.3709 10.9232 11.8084L11.0884 9.70856H14.0049C14.2868 9.70856 14.5298 9.47525 14.5298 9.14472C14.5298 8.81419 14.2868 8.60032 14.0049 8.60032H10.894C10.3885 8.60032 10.1066 8.89196 10.058 9.4072L9.8441 12.207C9.80521 12.6931 10.058 12.9264 10.4857 12.9264C10.8065 12.9264 10.9426 12.868 11.2245 12.6542C11.594 12.3139 11.8953 12.1778 12.2745 12.1778C13.0327 12.1778 13.5383 12.7319 13.5383 13.5777C13.5383 14.4332 12.9452 15.0554 12.1384 15.0554C11.5648 15.0554 11.069 14.7248 10.8162 14.2193C10.6704 13.9666 10.4954 13.8305 10.2524 13.8305C9.93159 13.8305 9.708 14.0638 9.708 14.3943C9.708 14.5304 9.73716 14.6568 9.78577 14.7832C10.0482 15.4831 10.9037 16.1636 12.08 16.1636Z" fill="#2288DD"/>
</svg>
