<svg width="25" height="24" viewBox="0 0 25 24" fill="none" xmlns="http://www.w3.org/2000/svg">
<path fill-rule="evenodd" clip-rule="evenodd" d="M3.5 6H21.5V5C21.5 3.34315 20.1569 2 18.5 2H6.5C4.84315 2 3.5 3.34315 3.5 5V6ZM1.5 5C1.5 2.23858 3.73858 0 6.5 0H18.5C21.2614 0 23.5 2.23858 23.5 5V19C23.5 21.7614 21.2614 24 18.5 24H6.5C3.73858 24 1.5 21.7614 1.5 19V5ZM21.5 8V19C21.5 20.6569 20.1569 22 18.5 22H6.5C4.84315 22 3.5 20.6569 3.5 19V8H21.5Z" fill="#8598A7"/>
<path fill-rule="evenodd" clip-rule="evenodd" d="M12.5 9.85789C13.0523 9.85789 13.5 10.3056 13.5 10.8579V13.8579H16.5C17.0523 13.8579 17.5 14.3056 17.5 14.8579C17.5 15.4102 17.0523 15.8579 16.5 15.8579H13.5V18.8579C13.5 19.4102 13.0523 19.8579 12.5 19.8579C11.9477 19.8579 11.5 19.4102 11.5 18.8579V15.8579H8.5C7.94772 15.8579 7.5 15.4102 7.5 14.8579C7.5 14.3056 7.94772 13.8579 8.5 13.8579H11.5V10.8579C11.5 10.3056 11.9477 9.85789 12.5 9.85789Z" fill="#8598A7"/>
</svg>
