<svg width="30" height="30" viewBox="0 0 30 30" fill="none" xmlns="http://www.w3.org/2000/svg">
<path fill-rule="evenodd" clip-rule="evenodd" d="M15 2C7.8203 2 2 7.8203 2 15C2 22.1797 7.8203 28 15 28C22.1797 28 28 22.1797 28 15C28 11.7024 26.7735 8.69364 24.7503 6.40135C24.3848 5.98728 24.4242 5.35534 24.8383 4.98988C25.2523 4.62441 25.8843 4.66381 26.2497 5.07788C28.5831 7.72153 30 11.1965 30 15C30 23.2843 23.2843 30 15 30C6.71573 30 0 23.2843 0 15C0 6.71573 6.71573 0 15 0C15.5523 0 16 0.447715 16 1C16 1.55228 15.5523 2 15 2Z" fill="#8598A7"/>
</svg>
