<svg width="25" height="24" viewBox="0 0 25 24" fill="none" xmlns="http://www.w3.org/2000/svg">
<path d="M8 0C4.68629 0 2 2.68629 2 6V18C2 18.5523 2.44772 19 3 19C3.55228 19 4 18.5523 4 18V6C4 3.79086 5.79086 2 8 2H16C16.5523 2 17 1.55228 17 1C17 0.447715 16.5523 0 16 0H8Z" fill="#8598A7"/>
<path fill-rule="evenodd" clip-rule="evenodd" d="M6 9C6 6.23858 8.23858 4 11 4H18C20.7614 4 23 6.23858 23 9V19C23 21.7614 20.7614 24 18 24H11C8.23858 24 6 21.7614 6 19V9ZM11 6H18C19.6569 6 21 7.34315 21 9V19C21 20.6569 19.6569 22 18 22H11C9.34315 22 8 20.6569 8 19V9C8 7.34315 9.34315 6 11 6Z" fill="#8598A7"/>
</svg>
