<svg width="24" height="24" viewBox="0 0 24 24" fill="none" xmlns="http://www.w3.org/2000/svg">
<path d="M10.5658 0.510049C11.3906 -0.170016 12.6094 -0.170017 13.4342 0.510048L14.657 1.51827C15.1031 1.88609 15.684 2.06724 16.2702 2.02132L17.877 1.89543C18.9608 1.81052 19.9468 2.49798 20.1975 3.51344L20.5693 5.01889C20.7049 5.56811 21.064 6.04237 21.5663 6.33588L22.9434 7.14041C23.8722 7.68308 24.2488 8.79543 23.8297 9.75841L23.2084 11.1861C22.9818 11.7069 22.9818 12.2931 23.2084 12.8139L23.8297 14.2416C24.2488 15.2046 23.8722 16.3169 22.9434 16.8596L21.5663 17.6641C21.064 17.9576 20.7049 18.4319 20.5693 18.9811L20.1975 20.4866C19.9468 21.502 18.9608 22.1895 17.877 22.1046L16.2702 21.9787C15.684 21.9328 15.1031 22.1139 14.657 22.4817L13.4342 23.49C12.6094 24.17 11.3906 24.17 10.5658 23.49L9.34302 22.4817C8.89691 22.1139 8.31596 21.9328 7.72978 21.9787L6.12299 22.1046C5.03919 22.1895 4.05323 21.502 3.80246 20.4866L3.43069 18.9811C3.29507 18.4319 2.93602 17.9576 2.43366 17.6641L1.05664 16.8596C0.127815 16.3169 -0.248789 15.2046 0.170274 14.2416L0.791553 12.8139C1.01821 12.2931 1.01821 11.7069 0.791553 11.1861L0.170273 9.7584C-0.24879 8.79543 0.127813 7.68308 1.05664 7.14041L2.43366 6.33588C2.93602 6.04237 3.29507 5.5681 3.43069 5.01889L3.80246 3.51344C4.05323 2.49798 5.03919 1.81052 6.12299 1.89543L7.72978 2.02132C8.31596 2.06724 8.89691 1.88609 9.34302 1.51827L10.5658 0.510049Z" fill="#6FCF97"/>
<path d="M8 12.3529L11.2 15L16 10" stroke="white" stroke-width="2" stroke-linecap="round" stroke-linejoin="round"/>
</svg>
