<svg width="25" height="24" viewBox="0 0 25 24" fill="none" xmlns="http://www.w3.org/2000/svg">
    <path
        d="M18.7104 21.726C18.3533 22.1108 17.7575 22.0823 17.4076 21.6906C17.0578 21.2991 17.0866 20.6932 17.4395 20.3046C19.4158 18.1285 20.625 15.2091 20.625 12C20.625 8.79088 19.4158 5.87153 17.4395 3.69542C17.0866 3.30683 17.0578 2.70093 17.4076 2.30938C17.7575 1.91769 18.3533 1.88916 18.7104 2.27401C21.0586 4.80493 22.5 8.22975 22.5 12C22.5 15.7702 21.0586 19.1951 18.7104 21.726Z"
        fill="#8598A7" />
    <path
        d="M16.1679 18.8811C15.8204 19.2751 15.2235 19.246 14.8736 18.8543C14.5238 18.4627 14.5543 17.8577 14.8932 17.4562C16.1279 15.994 16.875 14.0865 16.875 12C16.875 9.91348 16.1279 8.006 14.8932 6.54379C14.5543 6.14235 14.5238 5.53726 14.8736 5.14572C15.2235 4.75403 15.8204 4.72485 16.1679 5.11889C17.7726 6.93897 18.75 9.35237 18.75 12C18.75 14.6476 17.7726 17.061 16.1679 18.8811Z"
        fill="#8598A7" />
    <path
        d="M12.3396 16.0179C12.6896 16.4096 13.2893 16.4398 13.6147 16.0265C14.4811 14.9258 15 13.5251 15 12C15 10.4749 14.4811 9.07421 13.6147 7.97352C13.2893 7.56016 12.6896 7.59036 12.3396 7.98205C11.9898 8.37359 12.0257 8.97756 12.3246 9.41125C12.8288 10.1428 13.125 11.0359 13.125 12C13.125 12.9641 12.8288 13.8572 12.3246 14.5888C12.0257 15.0224 11.9898 15.6264 12.3396 16.0179Z"
        fill="#8598A7" />
    <path
        d="M2.5 10.7174C2.5 10.009 3.05965 9.4348 3.75 9.4348H5.28366L8.85228 6.14636C9.65698 5.40483 10.9375 5.99081 10.9375 7.10057V16.8992C10.9375 18.009 9.65699 18.595 8.85228 17.8534L5.28366 14.565H3.75C3.05965 14.565 2.5 13.9908 2.5 13.2825V10.7174Z"
        fill="#8598A7" />
</svg>