<svg width="25" height="24" viewBox="0 0 25 24" fill="none" xmlns="http://www.w3.org/2000/svg">
<path fill-rule="evenodd" clip-rule="evenodd" d="M18.3254 17.7634C17.5415 18.6124 16.4172 19.1477 15.1585 19.1477H13.6608V21.6858H17.6299C18.2664 21.6858 18.7907 22.2084 18.7907 22.8429C18.7907 23.4775 18.2664 24 17.6299 24H7.33262C6.69606 24 6.17184 23.4775 6.17184 22.8429C6.17184 22.2084 6.69606 21.6858 7.33262 21.6858H11.3392V19.1477H9.84141C7.4824 19.1477 5.53528 17.2442 5.53528 14.8554V13.7729C5.53528 13.3624 5.87228 13.0264 6.28417 13.0264H9.12996C9.54185 13.0264 9.87885 12.6905 9.87885 12.2799V11.4961C9.87885 11.0855 9.54185 10.7496 9.12996 10.7496H6.28417C5.87228 10.7496 5.53528 10.4137 5.53528 10.0031V8.88336C5.53528 8.47278 5.87228 8.13686 6.28417 8.13686H7.26804L18.3254 17.7634ZM18.9605 16.8708L8.92838 8.13686H9.12996C9.54185 8.13686 9.87885 7.80093 9.87885 7.39036V6.60653C9.87885 6.56587 9.87555 6.52594 9.86919 6.48699L19.4647 14.8407V14.8554C19.4647 15.5813 19.2827 16.2681 18.9605 16.8708ZM19.4647 13.3953L6.26435 1.90316C7.03425 0.759174 8.34263 0 9.84141 0H15.1585C17.5176 0 19.4647 1.90358 19.4647 4.29238V13.3953ZM5.5388 5.18591C5.53647 5.16209 5.53528 5.13794 5.53528 5.11353V4.29238C5.53528 3.81081 5.61537 3.34645 5.76334 2.91247L9.14932 5.86028C9.14289 5.86011 9.13643 5.86003 9.12996 5.86003H6.31312L5.5388 5.18591Z" fill="#333333"/>
<path fill-rule="evenodd" clip-rule="evenodd" d="M2.1759 0.990705C2.56083 0.570785 3.21329 0.542417 3.63321 0.927344L23.5905 18.302C24.0104 18.6869 24.0388 19.3394 23.6539 19.7593C23.2689 20.1792 22.6165 20.2076 22.1965 19.8227L2.23926 2.44801C1.81934 2.06308 1.79097 1.41063 2.1759 0.990705Z" fill="#FF6D6D"/>
</svg>
