<svg width="24" height="24" viewBox="0 0 24 24" fill="none" xmlns="http://www.w3.org/2000/svg">
<g clip-path="url(#clip0)">
<path fill-rule="evenodd" clip-rule="evenodd" d="M11 24C17.0751 24 22 19.0751 22 13C22 6.92487 17.0751 2 11 2C4.92487 2 0 6.92487 0 13C0 19.0751 4.92487 24 11 24ZM9 10.5C9 11.3284 8.32843 12 7.5 12C6.67157 12 6 11.3284 6 10.5C6 9.67157 6.67157 9 7.5 9C8.32843 9 9 9.67157 9 10.5ZM16 10.5C16 11.3284 15.3284 12 14.5 12C13.6716 12 13 11.3284 13 10.5C13 9.67157 13.6716 9 14.5 9C15.3284 9 16 9.67157 16 10.5Z" fill="#2288DD"/>
<path d="M7.24475 15.3973C7.02771 15.0445 6.56576 14.9344 6.21296 15.1515C5.86017 15.3685 5.75012 15.8305 5.96716 16.1833L7.24475 15.3973ZM16.0393 16.1724C16.2504 15.816 16.1325 15.3559 15.7761 15.1449C15.4196 14.9339 14.9596 15.0518 14.7486 15.4082L16.0393 16.1724ZM6.60596 15.7903C5.96716 16.1833 5.96737 16.1836 5.96758 16.184C5.96766 16.1841 5.96787 16.1844 5.96803 16.1847C5.96834 16.1852 5.96867 16.1857 5.96902 16.1863C5.96972 16.1874 5.9705 16.1887 5.97137 16.19C5.97311 16.1928 5.97518 16.1961 5.97759 16.1999C5.98241 16.2074 5.98858 16.2169 5.99611 16.2283C6.01119 16.251 6.03176 16.2812 6.05797 16.3177C6.11036 16.3907 6.18553 16.4895 6.28463 16.6056C6.4825 16.8374 6.77803 17.141 7.18068 17.4462C7.99107 18.0605 9.22806 18.675 10.9431 18.7291L10.9904 17.2298C9.63184 17.187 8.68842 16.7069 8.08682 16.2508C7.78347 16.0209 7.5651 15.7953 7.42558 15.6318C7.35598 15.5503 7.30657 15.4848 7.27656 15.443C7.26158 15.4222 7.25149 15.4073 7.24621 15.3993C7.24357 15.3953 7.24214 15.3931 7.2419 15.3927C7.24178 15.3925 7.24196 15.3928 7.24243 15.3936C7.24267 15.3939 7.24298 15.3944 7.24337 15.3951C7.24356 15.3954 7.24377 15.3957 7.244 15.3961C7.24412 15.3963 7.24431 15.3966 7.24436 15.3967C7.24455 15.397 7.24475 15.3973 6.60596 15.7903ZM10.9431 18.7291C12.6857 18.784 13.9588 18.1593 14.7921 17.5143C15.2057 17.1941 15.5103 16.8698 15.7138 16.6222C15.8158 16.4981 15.8933 16.3923 15.947 16.3144C15.974 16.2754 15.995 16.2433 16.0103 16.2192C16.018 16.2072 16.0242 16.1972 16.0291 16.1894C16.0315 16.1854 16.0335 16.182 16.0352 16.1792C16.0361 16.1778 16.0369 16.1765 16.0375 16.1754C16.0379 16.1748 16.0382 16.1743 16.0385 16.1738C16.0386 16.1735 16.0389 16.1732 16.0389 16.1731C16.0391 16.1727 16.0393 16.1724 15.394 15.7903C14.7486 15.4082 14.7488 15.4079 14.749 15.4076C14.749 15.4075 14.7492 15.4072 14.7493 15.407C14.7495 15.4066 14.7497 15.4063 14.7499 15.406C14.7502 15.4054 14.7505 15.405 14.7507 15.4047C14.7511 15.404 14.7511 15.4039 14.7509 15.4043C14.7504 15.4051 14.7487 15.4079 14.7457 15.4126C14.7397 15.422 14.7287 15.439 14.7125 15.4623C14.6803 15.509 14.628 15.581 14.5551 15.6697C14.4087 15.8478 14.1829 16.0889 13.8739 16.3282C13.262 16.8019 12.3215 17.2718 10.9904 17.2298L10.9431 18.7291Z" fill="white"/>
<path d="M21.75 1C21.75 0.0335016 20.9665 -0.75 20 -0.75C19.0335 -0.75 18.25 0.0335016 18.25 1V2.25H17C16.0335 2.25 15.25 3.0335 15.25 4C15.25 4.9665 16.0335 5.75 17 5.75H18.25V7C18.25 7.9665 19.0335 8.75 20 8.75C20.9665 8.75 21.75 7.9665 21.75 7V5.75H23C23.9665 5.75 24.75 4.9665 24.75 4C24.75 3.0335 23.9665 2.25 23 2.25H21.75V1Z" fill="#2288DD" stroke="white" stroke-width="1.5" stroke-linecap="round" stroke-linejoin="round"/>
</g>
<defs>
<clipPath id="clip0">
<rect width="24" height="24" fill="white"/>
</clipPath>
</defs>
</svg>
