<svg width="25" height="24" viewBox="0 0 25 24" fill="none" xmlns="http://www.w3.org/2000/svg">
<path fill-rule="evenodd" clip-rule="evenodd" d="M1.5 4C1.5 2.89543 2.39543 2 3.5 2H21.5C22.6046 2 23.5 2.89543 23.5 4V20C23.5 21.1046 22.6046 22 21.5 22H3.5C2.39543 22 1.5 21.1046 1.5 20V4ZM20.5 8.5C20.5 9.88071 19.3807 11 18 11C16.6193 11 15.5 9.88071 15.5 8.5C15.5 7.11929 16.6193 6 18 6C19.3807 6 20.5 7.11929 20.5 8.5ZM4.32536 16.5144L7.65915 10.5135C8.03293 9.84072 8.99482 9.8247 9.3908 10.4847L10.9604 13.1007C11.2542 13.5903 11.8975 13.735 12.3726 13.4183L13.7129 12.5247C14.1545 12.2303 14.7492 12.3322 15.0676 12.7568L17.8 16.4C18.2944 17.0592 17.824 18 17 18H5.19951C4.43703 18 3.95506 17.1809 4.32536 16.5144Z" fill="#8598A7"/>
</svg>
