<svg width="22" height="24" viewBox="0 0 22 24" fill="none" xmlns="http://www.w3.org/2000/svg">
<path fill-rule="evenodd" clip-rule="evenodd" d="M6.5 0C3.18629 0 0.5 2.68629 0.5 6V18C0.5 18.5523 0.947715 19 1.5 19C2.05228 19 2.5 18.5523 2.5 18V6C2.5 3.79086 4.29086 2 6.5 2H14.5C15.0523 2 15.5 1.55228 15.5 1C15.5 0.447715 15.0523 0 14.5 0H6.5ZM9.5 6H16.5C18.1569 6 19.5 7.34315 19.5 9V19C19.5 20.6569 18.1569 22 16.5 22H9.5C7.84315 22 6.5 20.6569 6.5 19V9C6.5 7.34315 7.84315 6 9.5 6ZM4.5 9C4.5 6.23858 6.73858 4 9.5 4H16.5C19.2614 4 21.5 6.23858 21.5 9V19C21.5 21.7614 19.2614 24 16.5 24H9.5C6.73858 24 4.5 21.7614 4.5 19V9Z" fill="#2288DD"/>
</svg>
