<svg width="24" height="24" fill="none" xmlns="http://www.w3.org/2000/svg"><path fill-rule="evenodd" clip-rule="evenodd" d="M15.753 3.693c.249.412.695.665 1.177.665h3.01c.49 0 .944.263 1.19.687l1.458 2.527c.25.433.246.968-.012 1.395l-1.398 2.324a1.375 1.375 0 000 1.418c.401.667 1 1.66 1.398 2.324.258.427.262.962.012 1.395-.412.715-1.049 1.816-1.458 2.527-.246.424-.7.687-1.19.687h-3.01c-.482 0-.928.253-1.177.665-.34.567-.829 1.377-1.17 1.943a1.374 1.374 0 01-1.177.666h-2.812c-.482 0-.929-.252-1.177-.666-.341-.566-.83-1.376-1.17-1.943a1.376 1.376 0 00-1.178-.665H4.06c-.49 0-.944-.263-1.19-.687l-1.458-2.527a1.37 1.37 0 01.012-1.395l1.398-2.324a1.376 1.376 0 000-1.418c-.401-.667-1-1.66-1.398-2.324a1.37 1.37 0 01-.012-1.395L2.87 5.045c.246-.424.7-.687 1.19-.687h3.01c.482 0 .928-.253 1.177-.665.34-.567.829-1.377 1.17-1.943a1.374 1.374 0 011.177-.666h2.812c.482 0 .929.252 1.177.666.341.566.83 1.376 1.17 1.943zM12 7.877A4.124 4.124 0 0116.122 12 4.124 4.124 0 0112 16.122 4.124 4.124 0 017.877 12 4.124 4.124 0 0112 7.877z" fill="#fff"/><path d="M21.13 5.045l.866-.5-.866.5zm1.458 2.527l-.867.5h.001l.866-.5zm-.012 1.395l-.856-.517-.002.002.858.515zm-1.398 2.324l-.857-.516v.001l.857.515zm0 1.418l-.857.515.857-.515zm1.398 2.324l-.858.515.002.002.856-.517zm.012 1.395l-.866-.5.866.5zm-1.458 2.527l.865.501.001-.002-.866-.5zm-5.377 1.352l-.856-.517-.001.002.857.515zm-1.17 1.943l-.856-.516.856.516zm-5.166 0l.857-.515-.857.515zm-1.17-1.943l.857-.515v-.002l-.857.517zM2.87 18.955l-.866.5v.001l.866-.501zm-1.458-2.527l.867-.5h-.001l-.866.5zm.012-1.395l.856.517.002-.002-.858-.515zm1.398-2.324l.857.516v-.001l-.857-.515zm0-1.418l.857-.515-.857.515zM1.424 8.967l.858-.515-.002-.002-.856.517zm-.012-1.395l.866.5-.866-.5zM2.87 5.045l-.865-.5h-.001l.866.5zm5.377-1.352l.856.517.001-.002-.857-.515zm1.17-1.943l.856.516-.856-.516zm5.166 0l-.857.515.857-.515zm.314 2.46c.429.711 1.2 1.148 2.033 1.148v-2a.376.376 0 01-.32-.181L14.896 4.21zm2.033 1.148H19.94v-2H16.93v2zm3.01 0c.132 0 .257.071.325.189l1.73-1.003a2.376 2.376 0 00-2.055-1.186v2zm.324.187c.41.713 1.045 1.81 1.457 2.526l1.734-.998-1.459-2.527-1.732.999zm1.458 2.528a.37.37 0 01-.002.377l1.711 1.035a2.37 2.37 0 00.023-2.413l-1.732 1zm-.004.38c-.398.663-.995 1.656-1.397 2.322l1.714 1.032c.401-.667 1-1.66 1.398-2.325l-1.715-1.03zm-1.397 2.323a2.376 2.376 0 000 2.448l1.714-1.03a.375.375 0 010-.388l-1.714-1.03zm0 2.449c.402.666 1 1.66 1.397 2.323l1.715-1.03-1.398-2.325-1.714 1.032zm1.399 2.325a.37.37 0 01.002.377l1.732 1a2.37 2.37 0 00-.023-2.412L21.72 15.55zm.001.379l-1.457 2.526 1.732 1 1.459-2.528-1.734-.998zm-1.456 2.524a.376.376 0 01-.325.189v2c.849 0 1.631-.454 2.055-1.186l-1.73-1.003zm-.325.189H16.93v2H19.94v-2zm-3.01 0c-.833 0-1.604.437-2.033 1.148l1.712 1.034a.376.376 0 01.321-.182v-2zm-2.034 1.15c-.34.567-.828 1.375-1.17 1.942l1.714 1.032 1.17-1.944-1.714-1.03zm-1.17 1.943a.374.374 0 01-.32.181v2c.833 0 1.605-.437 2.034-1.15l-1.713-1.031zm-.32.181H10.594v2H13.406v-2zm-2.812 0a.374.374 0 01-.32-.181l-1.714 1.03c.429.714 1.2 1.151 2.034 1.151v-2zm-.32-.182c-.342-.567-.83-1.375-1.17-1.942l-1.714 1.03 1.17 1.944 1.713-1.032zm-1.17-1.944a2.376 2.376 0 00-2.035-1.148v2c.132 0 .254.069.322.181l1.712-1.033zm-2.035-1.148H4.06v2H7.069v-2zm-3.009 0a.376.376 0 01-.325-.189l-1.73 1.003a2.376 2.376 0 002.055 1.186v-2zm-.324-.187c-.41-.713-1.045-1.81-1.457-2.526l-1.734.998 1.459 2.527 1.732-.999zm-1.458-2.528a.37.37 0 01.002-.377L.57 14.515a2.37 2.37 0 00-.023 2.413l1.732-1zm.004-.38c.398-.663.995-1.656 1.397-2.322l-1.714-1.032c-.401.667-1 1.66-1.398 2.325l1.715 1.03zm1.397-2.323a2.376 2.376 0 000-2.448l-1.714 1.03a.376.376 0 010 .388l1.714 1.03zm0-2.449c-.402-.666-1-1.66-1.397-2.323L.567 9.482l1.398 2.325 1.714-1.032zM2.28 8.45a.37.37 0 01-.002-.377l-1.732-1A2.37 2.37 0 00.57 9.484L2.28 8.45zM2.28 8.07l1.457-2.526-1.732-1L.545 7.074l1.734.998zm1.456-2.524a.376.376 0 01.325-.189v-2c-.849 0-1.631.454-2.055 1.186l1.73 1.003zm.325-.189H7.069v-2H4.06v2zm3.01 0c.833 0 1.604-.437 2.033-1.148L7.391 3.177a.376.376 0 01-.322.181v2zm2.034-1.15c.34-.567.828-1.375 1.17-1.942L8.56 1.234 7.39 3.178l1.714 1.03zm1.17-1.943a.374.374 0 01.32-.181v-2C9.76.084 8.99.52 8.56 1.234l1.713 1.031zm.32-.181H13.406v-2H10.594v2zm2.812 0c.13 0 .252.068.32.181l1.714-1.03A2.374 2.374 0 0013.406.084v2zm.32.182c.342.567.83 1.375 1.17 1.942l1.714-1.03-1.17-1.944-1.713 1.032zM12 8.877c1.723 0 3.123 1.4 3.123 3.123h2A5.124 5.124 0 0012 6.877v2zM15.123 12c0 1.723-1.4 3.123-3.123 3.123v2A5.124 5.124 0 0017.122 12h-2zM12 15.123A3.124 3.124 0 018.877 12h-2A5.124 5.124 0 0012 17.122v-2zM8.877 12c0-1.723 1.4-3.123 3.123-3.123v-2A5.124 5.124 0 006.877 12h2z" fill="#28D"/></svg>