<svg width="20" height="20" viewBox="0 0 20 20" fill="none" xmlns="http://www.w3.org/2000/svg">
<path d="M15.1754 18.1051C14.8778 18.4258 14.3814 18.402 14.0897 18.0756C13.7982 17.7493 13.8222 17.2444 14.1163 16.9206C15.7633 15.1071 16.7709 12.6743 16.7709 10.0001C16.7709 7.32581 15.7633 4.89302 14.1163 3.0796C13.8222 2.75577 13.7982 2.25085 14.0897 1.92457C14.3814 1.59816 14.8778 1.57438 15.1754 1.89509C17.1323 4.00419 18.3334 6.85821 18.3334 10.0001C18.3334 13.142 17.1323 15.996 15.1754 18.1051Z" fill="#8598A7"/>
<path d="M13.0566 15.7343C12.7671 16.0627 12.2697 16.0384 11.9781 15.712C11.6866 15.3857 11.712 14.8815 11.9944 14.5469C13.0233 13.3284 13.6459 11.7388 13.6459 10.0001C13.6459 8.26132 13.0233 6.67175 11.9944 5.45324C11.712 5.1187 11.6866 4.61446 11.9781 4.28818C12.2697 3.96177 12.7671 3.93746 13.0566 4.26583C14.3939 5.78255 15.2084 7.79372 15.2084 10.0001C15.2084 12.2064 14.3939 14.2176 13.0566 15.7343Z" fill="#8598A7"/>
<path d="M9.86643 13.3484C10.158 13.6748 10.6578 13.6999 10.929 13.3555C11.651 12.4382 12.0834 11.271 12.0834 10.0001C12.0834 8.72919 11.651 7.56192 10.929 6.64468C10.6578 6.30021 10.158 6.32538 9.86643 6.65179C9.57493 6.97808 9.60486 7.48138 9.85393 7.84279C10.2741 8.4524 10.5209 9.19666 10.5209 10.0001C10.5209 10.8035 10.274 11.5478 9.85393 12.1574C9.60486 12.5188 9.57493 13.0221 9.86643 13.3484Z" fill="#8598A7"/>
<path d="M1.66675 8.93121C1.66675 8.34093 2.13312 7.86241 2.70842 7.86241H3.98646L6.96032 5.12205C7.6309 4.50411 8.69801 4.99243 8.69801 5.91722V14.0828C8.69801 15.0076 7.6309 15.4959 6.96032 14.878L3.98646 12.1376H2.70842C2.13312 12.1376 1.66675 11.6591 1.66675 11.0688V8.93121Z" fill="#8598A7"/>
</svg>
