<svg width="24" height="24" viewBox="0 0 24 24" fill="none" xmlns="http://www.w3.org/2000/svg">
<path fill-rule="evenodd" clip-rule="evenodd" d="M12 0C5.37261 0 0 5.37258 0 12C0 18.6274 5.37261 24 12 24C18.6274 24 24.0001 18.6274 24.0001 12C24.0001 5.37258 18.6274 0 12 0ZM8.00016 9.48842C8.00586 7.22424 9.79453 5.39057 12.0002 5.39057C14.2058 5.39057 15.9945 7.22423 16.0002 9.48842C15.9945 11.7526 14.2058 13.5863 12.0002 13.5863C9.79453 13.5863 8.00586 11.7526 8.00016 9.48842ZM8.00016 9.48842L8.00015 9.49928V9.47757L8.00016 9.48842ZM16.0002 9.48842L16.0002 9.47757V9.49928L16.0002 9.48842ZM19.2476 18.8894C19.4978 18.6263 19.5671 18.2375 19.4033 17.9135C18.5152 16.1563 16.7275 14.9558 14.6668 14.9558H9.33348C7.27269 14.9558 5.48488 16.1564 4.59682 17.9138C4.4331 18.2378 4.50244 18.6266 4.7526 18.8896C6.57438 20.8052 9.14772 21.9993 12 21.9993C14.8523 21.9993 17.4258 20.8051 19.2476 18.8894Z" fill="#8598A7"/>
</svg>
