<svg width="20" height="20" viewBox="0 0 20 20" fill="none" xmlns="http://www.w3.org/2000/svg">
    <path fill-rule="evenodd" clip-rule="evenodd"
        d="M9.99897 0C8.43034 0 7.15872 1.27162 7.15872 2.84024V11.361C7.15872 12.9296 8.43034 14.2012 9.99897 14.2012C11.5676 14.2012 12.8392 12.9296 12.8392 11.361V2.84025C12.8392 1.27162 11.5676 0 9.99897 0ZM6.33136 9.46737C6.33136 8.87913 5.8545 8.40227 5.26626 8.40227C4.67803 8.40227 4.20117 8.87913 4.20117 9.46737V11.3785C4.20117 14.2173 6.24102 16.5796 8.93491 17.0797V17.8698H7.56551C6.97728 17.8698 6.50042 18.3466 6.50042 18.9348C6.50042 19.5231 6.97728 19.9999 7.56551 19.9999H12.4345C13.0227 19.9999 13.4996 19.5231 13.4996 18.9348C13.4996 18.3466 13.0227 17.8698 12.4345 17.8698H11.0651V17.0797C13.759 16.5796 15.7988 14.2173 15.7988 11.3785V9.46737C15.7988 8.87913 15.322 8.40227 14.7337 8.40227C14.1455 8.40227 13.6687 8.87913 13.6687 9.46737V11.3785C13.6687 13.4047 12.0261 15.0472 10 15.0472C7.97387 15.0472 6.33136 13.4047 6.33136 11.3785V9.46737Z"
        fill="#8598A7" />
</svg>