<svg width="25" height="24" viewBox="0 0 25 24" fill="none" xmlns="http://www.w3.org/2000/svg">
<g clip-path="url(#clip0)">
<path fill-rule="evenodd" clip-rule="evenodd" d="M10.5277 0.0833893C8.45664 0.0833893 6.77771 1.76232 6.77771 3.83339V8.0427C3.18285 8.86145 0.5 12.0777 0.5 15.9205C0.5 20.3826 4.11728 23.9999 8.57941 23.9999C11.3048 23.9999 13.7149 22.6505 15.1783 20.5834H20.5277C22.5988 20.5834 24.2777 18.9045 24.2777 16.8334V3.83339C24.2777 1.76232 22.5988 0.0833893 20.5277 0.0833893H10.5277ZM16.0163 19.0834H20.5277C21.7704 19.0834 22.7777 18.076 22.7777 16.8334V3.83339C22.7777 2.59075 21.7704 1.58339 20.5277 1.58339H10.5277C9.28507 1.58339 8.27771 2.59075 8.27771 3.83339V7.8466C8.37782 7.84293 8.4784 7.84107 8.57941 7.84107C10.1626 7.84107 11.6395 8.29646 12.8862 9.08339H18.5277C18.9419 9.08339 19.2777 9.41918 19.2777 9.83339C19.2777 10.2476 18.9419 10.5834 18.5277 10.5834H14.6452C15.2869 11.3121 15.7993 12.1574 16.1467 13.0834H18.5277C18.9419 13.0834 19.2777 13.4192 19.2777 13.8334C19.2777 14.2476 18.9419 14.5834 18.5277 14.5834H16.5487C16.6211 15.0183 16.6588 15.465 16.6588 15.9205C16.6588 17.043 16.4299 18.112 16.0163 19.0834ZM12.5277 5.08339C12.1135 5.08339 11.7777 5.41918 11.7777 5.83339C11.7777 6.2476 12.1135 6.58339 12.5277 6.58339H18.5277C18.9419 6.58339 19.2777 6.2476 19.2777 5.83339C19.2777 5.41918 18.9419 5.08339 18.5277 5.08339H12.5277ZM12.2518 14.0843C12.2518 14.6928 11.7586 15.1861 11.1501 15.1861C10.5416 15.1861 10.0484 14.6928 10.0484 14.0843C10.0484 13.4759 10.5416 12.9826 11.1501 12.9826C11.7586 12.9826 12.2518 13.4759 12.2518 14.0843ZM7.11039 14.0846C7.11039 14.6931 6.61712 15.1864 6.00865 15.1864C5.40018 15.1864 4.90691 14.6931 4.90691 14.0846C4.90691 13.4762 5.40018 12.9829 6.00865 12.9829C6.61712 12.9829 7.11039 13.4762 7.11039 14.0846ZM4.89281 18.2732C4.83869 18.1879 4.80735 18.0868 4.80735 17.9783C4.80735 17.6741 5.05398 17.4275 5.35822 17.4275C5.55325 17.4275 5.72461 17.5288 5.8225 17.6817L5.83628 17.7001C5.85881 17.7296 5.89588 17.7758 5.9479 17.8333C6.0522 17.9484 6.21482 18.1068 6.43892 18.2663C6.88328 18.5828 7.57511 18.9089 8.55766 18.9089C9.5408 18.9089 10.2451 18.5823 10.7025 18.2633C10.9328 18.1026 11.1013 17.9431 11.21 17.8269C11.2642 17.7689 11.303 17.7222 11.3268 17.6922C11.3386 17.6772 11.3467 17.6665 11.351 17.6607L11.3542 17.6563L11.353 17.658L11.358 17.6616C11.4578 17.5216 11.6216 17.4303 11.8067 17.4303C12.1109 17.4303 12.3575 17.677 12.3575 17.9812C12.3575 18.1365 12.2933 18.2768 12.1899 18.3769C12.1491 18.4283 12.0909 18.4978 12.0148 18.5793C11.8623 18.7423 11.6363 18.9552 11.3328 19.1669C10.7226 19.5926 9.80239 20.0107 8.55766 20.0107C7.31233 20.0107 6.40134 19.5921 5.79985 19.1638C5.50103 18.951 5.27997 18.737 5.13132 18.5729C5.05686 18.4907 5.00014 18.4205 4.9605 18.3686C4.94066 18.3426 4.92505 18.3211 4.91359 18.3049L4.89949 18.2845L4.89474 18.2775L4.89293 18.2748L4.89281 18.2732Z" fill="#8598A7"/>
</g>
<defs>
<clipPath id="clip0">
<rect width="24" height="24" fill="white" transform="translate(0.5)"/>
</clipPath>
</defs>
</svg>
