<svg width="24" height="24" viewBox="0 0 24 24" fill="none" xmlns="http://www.w3.org/2000/svg">
<g clip-path="url(#clip0)">
<path fill-rule="evenodd" clip-rule="evenodd" d="M16.1588 15.9205C16.1588 20.3826 12.5416 23.9999 8.07941 23.9999C3.61728 23.9999 0 20.3826 0 15.9205C0 11.4583 3.61728 7.84106 8.07941 7.84106C12.5416 7.84106 16.1588 11.4583 16.1588 15.9205ZM10.6501 15.1861C11.2586 15.1861 11.7518 14.6928 11.7518 14.0843C11.7518 13.4759 11.2586 12.9826 10.6501 12.9826C10.0416 12.9826 9.54836 13.4759 9.54836 14.0843C9.54836 14.6928 10.0416 15.1861 10.6501 15.1861ZM5.50865 15.1864C6.11712 15.1864 6.61039 14.6931 6.61039 14.0846C6.61039 13.4762 6.11712 12.9829 5.50865 12.9829C4.90018 12.9829 4.40691 13.4762 4.40691 14.0846C4.40691 14.6931 4.90018 15.1864 5.50865 15.1864ZM4.30735 17.9783C4.30735 18.0868 4.33869 18.1879 4.39281 18.2732L4.39218 18.2736L4.39293 18.2748L4.39474 18.2775L4.39949 18.2845L4.41359 18.3048C4.42505 18.3211 4.44066 18.3426 4.4605 18.3686C4.50014 18.4205 4.55686 18.4907 4.63132 18.5729C4.77997 18.737 5.00103 18.951 5.29985 19.1638C5.90134 19.5921 6.81233 20.0107 8.05766 20.0107C9.30239 20.0107 10.2226 19.5925 10.8328 19.1669C11.1363 18.9552 11.3623 18.7423 11.5148 18.5793C11.5909 18.4978 11.6491 18.4283 11.6899 18.3769C11.7933 18.2767 11.8575 18.1365 11.8575 17.9812C11.8575 17.677 11.6109 17.4303 11.3067 17.4303C11.1216 17.4303 10.9578 17.5216 10.858 17.6616L10.853 17.658L10.8535 17.6573L10.8542 17.6563L10.851 17.6607C10.8467 17.6665 10.8386 17.6772 10.8268 17.6922C10.803 17.7222 10.7642 17.7689 10.71 17.8268C10.6013 17.9431 10.4328 18.1026 10.2025 18.2633C9.74512 18.5823 9.0408 18.9089 8.05766 18.9089C7.07511 18.9089 6.38328 18.5828 5.93892 18.2663C5.71482 18.1068 5.5522 17.9484 5.4479 17.8333C5.39588 17.7758 5.35881 17.7296 5.33628 17.7001L5.3225 17.6817C5.22461 17.5288 5.05325 17.4274 4.85822 17.4274C4.55398 17.4274 4.30735 17.6741 4.30735 17.9783Z" fill="#2288DD"/>
<path d="M12.0276 19.8335H20.0276C21.6844 19.8335 23.0276 18.4904 23.0276 16.8335V3.8335C23.0276 2.17664 21.6844 0.833496 20.0276 0.833496H10.0276C8.37073 0.833496 7.02759 2.17664 7.02759 3.8335V10.7781M18.0276 5.8335H12.0276M18.0276 9.8335H12.0276M18.0276 13.8335H13.7515" stroke="#2288DD" stroke-width="1.5" stroke-linecap="round"/>
</g>
<defs>
<clipPath id="clip0">
<rect width="24" height="24" fill="white"/>
</clipPath>
</defs>
</svg>
