<svg width="24" height="24" viewBox="0 0 24 24" fill="none" xmlns="http://www.w3.org/2000/svg">
<path d="M14.27 18.1181C16.3164 18.1181 17.9471 16.4568 17.9471 14.4441V5.40278C17.9471 3.35811 16.2844 1.72876 14.27 1.72876H9.7296C7.68321 1.72876 6.05249 3.39005 6.05249 5.40278V6.10563C6.05249 6.45706 6.34026 6.74459 6.69199 6.74459H9.12208C9.4738 6.74459 9.76157 7.03212 9.76157 7.38355V8.05446C9.76157 8.40589 9.4738 8.69342 9.12208 8.69342H6.69199C6.34026 8.69342 6.05249 8.98095 6.05249 9.33238V10.2908C6.05249 10.6422 6.34026 10.9298 6.69199 10.9298H9.12208C9.4738 10.9298 9.76157 11.2173 9.76157 11.5687V12.2396C9.76157 12.5911 9.4738 12.8786 9.12208 12.8786H6.69199C6.34026 12.8786 6.05249 13.1661 6.05249 13.5176V14.4441C6.05249 16.4887 7.71518 18.1181 9.7296 18.1181H11.0086V20.2905H7.58728C7.04371 20.2905 6.59606 20.7378 6.59606 21.2809C6.59606 21.824 7.04371 22.2713 7.58728 22.2713H16.3804C16.9239 22.2713 17.3716 21.824 17.3716 21.2809C17.3716 20.7378 16.9239 20.2905 16.3804 20.2905H12.991V18.1181H14.27Z" fill="white"/>
</svg>
