<svg width="19" height="25" viewBox="0 0 19 25" fill="none" xmlns="http://www.w3.org/2000/svg">
<path d="M2.02154 24.0574H5.38869C6.67352 24.0574 7.35286 23.378 7.35286 22.0784V1.96417C7.35286 0.620264 6.67352 0 5.38869 0H2.02154C0.73671 0 0.057373 0.679337 0.057373 1.96417V22.0784C0.057373 23.378 0.73671 24.0574 2.02154 24.0574ZM12.758 24.0574H16.1104C17.41 24.0574 18.0746 23.378 18.0746 22.0784V1.96417C18.0746 0.620264 17.41 0 16.1104 0H12.758C11.4584 0 10.7791 0.679337 10.7791 1.96417V22.0784C10.7791 23.378 11.4584 24.0574 12.758 24.0574Z" fill="#2288DD"/>
</svg>
