<svg width="131" height="44" fill="none" xmlns="http://www.w3.org/2000/svg"><g clip-path="url(#clip0)"><path d="M120.568 0H10.438c-.402 0-.798 0-1.199.002-.335.003-.667.009-1.006.014A14.4 14.4 0 006.04.211 7.05 7.05 0 00.897 3.98a7.286 7.286 0 00-.684 2.093 14.36 14.36 0 00-.196 2.202c-.01.337-.012.676-.017 1.013v25.425c.005.342.006.673.017 1.015.008.738.074 1.474.196 2.202.12.729.35 1.435.684 2.094a6.827 6.827 0 001.29 1.776 6.871 6.871 0 001.772 1.297 7.314 7.314 0 002.08.694c.726.12 1.46.184 2.194.194.339.008.671.012 1.006.012.4.002.797.002 1.199.002h110.13c.393 0 .793 0 1.187-.002.333 0 .675-.005 1.009-.012.734-.01 1.465-.074 2.189-.194a7.42 7.42 0 002.089-.694 6.878 6.878 0 001.771-1.297 7.04 7.04 0 001.293-1.776c.331-.66.559-1.365.678-2.094.122-.728.19-1.464.203-2.202.004-.342.004-.673.004-1.014.009-.4.009-.798.009-1.204V10.49c0-.403 0-.803-.009-1.201 0-.337 0-.676-.004-1.013a14.913 14.913 0 00-.203-2.202 7.282 7.282 0 00-.678-2.094A7.09 7.09 0 00127.042.9a7.377 7.377 0 00-2.089-.69 14.195 14.195 0 00-2.189-.194c-.334-.005-.676-.012-1.009-.014C121.361 0 120.961 0 120.568 0z" fill="#000"/><path d="M50.191 9.833c2.542-.875 4.777 2.404 3.215 4.54-.945 1.548-3.368 1.704-4.528.334-1.385-1.494-.72-4.367 1.313-4.874zm.204.84c-1.53.496-1.87 2.8-.546 3.723 1.184 1.03 3.222-.032 3.133-1.59.206-1.39-1.285-2.628-2.587-2.133z" fill="#fff"/><path d="M55.487 10.349c1.15-.947 2.95-.764 3.968.302l-.521.639c-.705-.589-1.696-.998-2.56-.48-1.438.712-1.43 3.046.01 3.755.904.558 1.957.061 2.665-.582.192.199.385.4.58.6-1.015 1.185-2.915 1.432-4.137.444-1.428-1.092-1.432-3.582-.005-4.678zm25.861-.516c2.538-.873 4.777 2.409 3.21 4.542-.943 1.546-3.366 1.702-4.526.332-1.384-1.494-.72-4.367 1.316-4.874zm.2.84c-1.53.496-1.87 2.802-.544 3.723 1.185 1.03 3.219-.035 3.132-1.59.204-1.385-1.284-2.63-2.587-2.133zm-38.191-.819c1.261-.013 2.52-.013 3.78.003.01 1.584-.003 3.17.008 4.756.143.024.426.072.569.098-.006.665-.009 1.333-.009 1.998l-.794.006c-.008-.41-.021-.822-.03-1.233h-3.9c-.02.404-.046.807-.064 1.212-.257.008-.517.017-.774.028-.004-.654-.006-1.308-.004-1.962.406-.099.86-.254.967-.722.426-1.35.186-2.792.25-4.184zm.828.902c.02 1.31.11 2.654-.333 3.912a141.21 141.21 0 012.365 0 50.18 50.18 0 00.002-3.956c-.677.005-1.357.011-2.034.044zm15.755-.901c1.302-.014 2.607-.01 3.911-.003v.858c-.506.01-1.01.022-1.514.037.006 1.569-.002 3.14.008 4.708-.302.005-.603.007-.902.011.003-1.57-.004-3.14.007-4.708-.504-.022-1.008-.037-1.512-.055l.002-.848zm4.19.015c.323-.016.648-.03.972-.048.489.993.874 2.032 1.354 3.03.701-1.018.595-3.29 2.248-3.015a101.208 101.208 0 01-2.243 5.058c-.33.755-1.203.845-1.89.606.084-.225.17-.448.259-.671l.833-.132c.095-.302.368-.619.205-.947-.552-1.306-1.168-2.582-1.737-3.881zm5.052-.007c1.36-.03 2.716-.015 4.074-.01-.01 1.877-.004 3.752-.004 5.629h-.829c-.004-1.589.035-3.177-.026-4.763-.79.004-1.577.004-2.365-.002-.054 1.588-.017 3.178-.025 4.767-.275-.005-.548-.007-.823-.011-.004-1.869 0-3.739-.002-5.61zm5.193.009c.275-.011.55-.022.826-.03-.004.778-.004 1.56 0 2.338.872.009 1.744.009 2.618 0 .004-.779.004-1.56 0-2.339l.826.03c-.002 1.867.003 3.736-.002 5.602l-.822.01c.002-.824.002-1.647-.004-2.472-.872-.008-1.744-.008-2.614.003a242.02 242.02 0 00-.004 2.47c-.275-.005-.55-.007-.822-.011-.004-1.867 0-3.735-.002-5.601zm13.413-.006c1.113.065 2.523-.364 3.371.586.563.63.303 1.518-.121 2.144.833.698.837 2.142-.171 2.678-.965.405-2.06.142-3.077.197-.004-1.869 0-3.737-.002-5.605zm.823.857c0 .49.002.978.004 1.468.686-.072 1.863.291 1.969-.713-.048-1.054-1.275-.704-1.973-.755zm.004 2.28a415.61 415.61 0 00-.005 1.656c.509.002 1.022.035 1.528-.033.712-.107.798-1.262.138-1.514-.532-.181-1.11-.087-1.661-.11zm-44.707 7.513c2.24-2.002 5.948-1.956 8.083.188-.383.403-.772.799-1.164 1.194-1.605-1.446-4.227-1.568-5.809-.026-2.005 1.757-1.794 5.33.43 6.805 2.17 1.673 5.974.542 6.305-2.387-1.3-.066-2.605-.016-3.907-.04-.002-.58-.002-1.157 0-1.737 1.852-.01 3.704-.015 5.556.005.437 2.522-.788 5.377-3.278 6.252-2.739 1.053-6.123-.085-7.55-2.708-1.441-2.416-.816-5.772 1.334-7.546zm57.279-1.048c.58.004 1.16.004 1.742 0 .065 3.811.023 7.627.019 11.44-.59-.002-1.179 0-1.767.002-.007-3.813-.02-7.629.006-11.442zm-21.914.006c.578 0 1.157.005 1.735.02-.02 3.805 0 7.607-.008 11.412-.576 0-1.147 0-1.72.002-.022-3.811-.011-7.622-.007-11.434zm13.247.007c1.44 0 2.882-.028 4.323.002 1.854.02 3.591 1.685 3.476 3.605.05 1.794-1.512 3.335-3.236 3.473-.926.06-1.854.01-2.78.03 0 1.438.01 2.877-.01 4.317-.59-.002-1.178 0-1.767.002-.015-3.809-.002-7.62-.006-11.429zm1.78 1.643c.005 1.265.011 2.53-.004 3.792 1.564.111 4.152.376 4.288-1.836-.023-2.293-2.698-2.059-4.283-1.956zm-37.389 2.319c1.462-.343 3.122.151 4.035 1.387 1.224 1.58 1 4.096-.53 5.391-1.78 1.606-5.002 1.064-6.026-1.166-1.15-2.133.117-5.152 2.521-5.612zm.193 1.63c-1.749.645-1.844 3.45-.187 4.262 1.325.744 3.032-.392 3.062-1.875.24-1.545-1.396-3.04-2.875-2.387zm8.24-1.641c1.409-.304 2.997.138 3.914 1.293 1.417 1.674 1.073 4.56-.787 5.756-1.87 1.33-4.827.606-5.753-1.549-1.03-2.155.246-5.056 2.626-5.5zm.003 1.709c-1.508.713-1.655 3.106-.28 4.034 1.087.855 2.807.21 3.174-1.1.773-1.724-1.146-3.881-2.894-2.934zm5.421 2.102c-.186-2.837 3.485-5.172 5.712-3.126l.08-.551c.543.008 1.084.01 1.627.013-.011 2.45.023 4.9-.015 7.349-.013 1.498-.835 3.087-2.34 3.511-1.855.672-4.034-.284-4.793-2.128.493-.215.988-.425 1.482-.635.543.919 1.56 1.696 2.667 1.278 1.132-.293 1.409-1.595 1.348-2.619-2.222 2.098-5.984-.204-5.768-3.092zm3.003-2.122c-1.577.733-1.696 3.317-.156 4.16 1.138.756 2.724-.09 2.951-1.39.522-1.628-1.11-3.645-2.795-2.77zm10.349-1.549c2.052-.888 4.326.632 4.798 2.724-1.703.728-3.416 1.427-5.121 2.146.735 1.534 2.86 1.368 3.754.077.417.302.954.499 1.259.928-1.253 2.078-4.511 2.273-6.063.448-1.706-1.868-1.092-5.452 1.372-6.323zm-.682 3.483c1.185-.402 2.33-.923 3.477-1.428-1.156-1.558-3.458-.316-3.477 1.428zm20.544-1.929c1.143-2.69 5.874-2.337 6.43.608.15 1.72.031 3.452.059 5.176-.545-.002-1.088-.004-1.631 0a45.7 45.7 0 01-.08-.66c-1.076 1.08-2.895 1.185-4.076.227-1.13-.858-1.182-2.79-.052-3.671 1.187-.99 2.858-.943 4.244-.458-.294-1.616-2.524-1.881-3.416-.627-.493-.2-.986-.398-1.478-.595zm1.601 3.765c.879 1.413 3.192.387 3.215-1.16-1.077-.466-3.392-.53-3.215 1.16zm4.953-5.283a44.427 44.427 0 011.873-.038c.708 1.606 1.25 3.282 2.034 4.855.662-1.61 1.25-3.247 1.916-4.855.641.005 1.283.007 1.928.013-1.528 3.586-3.096 7.157-4.611 10.75-.612.017-1.226.021-1.838.014.547-1.284 1.129-2.555 1.694-3.833-.978-2.312-1.995-4.607-2.996-6.906z" fill="#fff"/><path d="M14.23 10.213c.64-.26 1.35-.256 1.938.127 4.4 2.512 8.797 5.034 13.182 7.574-1.28 1.25-2.488 2.575-3.8 3.79a7.813 7.813 0 00-.161.146c-3.572-4.019-7.707-7.517-11.16-11.637z" fill="#01EE76"/><path d="M13.773 11.913c-.03-.606.19-1.17.456-1.7 3.453 4.12 7.588 7.618 11.16 11.637-3.741 3.674-7.382 7.452-11.08 11.171l-.138.062c-.377-.464-.387-1.11-.41-1.68.016-6.496.001-12.994.012-19.49z" fill="#00D3FF"/><path d="M25.549 21.704c1.313-1.214 2.52-2.54 3.801-3.79 1.575.933 3.22 1.757 4.74 2.78.835.513.693 1.795-.134 2.242-1.501.945-3.072 1.78-4.61 2.669-1.296-1.27-2.596-2.538-3.797-3.901z" fill="#FFCB00"/><path d="M25.389 21.85c.039-.037.119-.11.16-.146 1.2 1.363 2.501 2.632 3.797 3.9-4.342 2.504-8.7 4.98-13.042 7.485-.605.368-1.445.626-2.033.079l.039-.147c3.697-3.719 7.338-7.497 11.079-11.17z" fill="#F3324A"/></g><defs><clipPath id="clip0"><path fill="#fff" d="M0 0h131v44H0z"/></clipPath></defs></svg>