<svg width="24" height="24" fill="none" xmlns="http://www.w3.org/2000/svg"><rect x="10" y="1" width="4" height="6" rx="2" fill="#fff" stroke="#28D" stroke-width="2"/><rect x="7" y="19" width="4" height="4" rx="2" fill="#fff" stroke="#28D" stroke-width="2"/><mask id="a" fill="#fff"><path fill-rule="evenodd" clip-rule="evenodd" d="M12 3a7 7 0 00-7 7v3c0 2.868-1.645 4.584-3.048 5.81C.705 19.9 1.343 21 3 21h18c1.657 0 2.295-1.1 1.047-2.19C20.645 17.583 19 15.867 19 13v-3a7 7 0 00-7-7z"/></mask><path fill-rule="evenodd" clip-rule="evenodd" d="M12 3a7 7 0 00-7 7v3c0 2.868-1.645 4.584-3.048 5.81C.705 19.9 1.343 21 3 21h18c1.657 0 2.295-1.1 1.047-2.19C20.645 17.583 19 15.867 19 13v-3a7 7 0 00-7-7z" fill="#fff"/><path d="M5 10h2-2zm0 3H3h2zm-3.048 5.81L.637 17.302l1.315 1.506zm20.095 0l-1.315 1.506 1.316-1.507zM7 10a5 5 0 015-5V1a9 9 0 00-9 9h4zm0 3v-3H3v3h4zm-3.732 7.316C4.776 18.999 7 16.773 7 13H3c0 1.963-1.065 3.17-2.363 4.303l2.631 3.013zM3 19c-.205 0-.269-.036-.233-.02.035.016.246.12.4.422.171.334.148.668.078.87-.058.164-.115.164.023.044L.637 17.303c-.908.793-1.864 2.295-1.03 3.922C.33 22.636 1.886 23 3 23v-4zm18 0H3v4h18v-4zm-.268 1.316c.138.12.08.12.024-.044a1.136 1.136 0 01.077-.87c.154-.301.365-.406.4-.422.036-.016-.028.02-.233.02v4c1.114 0 2.67-.364 3.393-1.775.834-1.627-.123-3.13-1.03-3.922l-2.631 3.013zM17 13c0 3.773 2.224 5.999 3.732 7.316l2.631-3.013C22.065 16.17 21 14.963 21 13h-4zm0-3v3h4v-3h-4zm-5-5a5 5 0 015 5h4a9 9 0 00-9-9v4z" fill="#28D" mask="url(#a)"/></svg>