<svg width="24" height="24" fill="none" xmlns="http://www.w3.org/2000/svg"><mask id="a" fill="#fff"><path fill-rule="evenodd" clip-rule="evenodd" d="M12 0C5.373 0 0 5.373 0 12s5.373 12 12 12 12-5.373 12-12S18.627 0 12 0zm4.971 16.974a1.186 1.186 0 01-1.677 0l-3.124-3.123-3.122 3.122a1.186 1.186 0 11-1.677-1.677l3.122-3.122-3.122-3.122a1.186 1.186 0 011.677-1.678l3.122 3.123 3.124-3.124A1.186 1.186 0 1116.97 9.05l-3.123 3.124 3.123 3.123a1.186 1.186 0 010 1.677z"/></mask><path fill-rule="evenodd" clip-rule="evenodd" d="M12 0C5.373 0 0 5.373 0 12s5.373 12 12 12 12-5.373 12-12S18.627 0 12 0zm4.971 16.974a1.186 1.186 0 01-1.677 0l-3.124-3.123-3.122 3.122a1.186 1.186 0 11-1.677-1.677l3.122-3.122-3.122-3.122a1.186 1.186 0 011.677-1.678l3.122 3.123 3.124-3.124A1.186 1.186 0 1116.97 9.05l-3.123 3.124 3.123 3.123a1.186 1.186 0 010 1.677z" fill="#fff"/><path d="M15.294 16.974l.353-.353-.353.353zm1.677 0l-.354-.353.354.353zm-4.8-3.123l.353-.354-.354-.353-.353.353.353.354zm-3.123 3.122l.354.354-.354-.354zm-1.677 0l-.354.354.354-.354zm0-1.677l.354.354-.354-.354zm3.122-3.122l.354.353.353-.353-.353-.354-.354.354zM7.371 9.052l-.354.353.354-.353zm0-1.678l-.354-.353.354.353zm1.677 0l.354-.353-.354.353zm3.122 3.123l-.353.353.353.354.354-.354-.354-.353zm3.124-3.124l-.354-.353.354.353zM16.97 9.05l-.354-.353.354.353zm-3.123 3.124l-.354-.354-.354.354.354.353.354-.353zm3.123 3.123l-.354.354.354-.354zM.5 12C.5 5.649 5.649.5 12 .5v-1C5.096-.5-.5 5.096-.5 12h1zM12 23.5C5.649 23.5.5 18.351.5 12h-1c0 6.904 5.596 12.5 12.5 12.5v-1zM23.5 12c0 6.351-5.149 11.5-11.5 11.5v1c6.904 0 12.5-5.596 12.5-12.5h-1zM12 .5C18.351.5 23.5 5.649 23.5 12h1C24.5 5.096 18.904-.5 12-.5v1zm2.94 16.828a1.686 1.686 0 002.385 0l-.708-.707a.686.686 0 01-.97 0l-.707.707zm-3.123-3.123l3.123 3.123.707-.707-3.123-3.124-.707.707zm-2.415 3.122l3.122-3.123-.707-.707-3.122 3.123.707.707zm-2.384 0a1.686 1.686 0 002.384 0l-.707-.707a.686.686 0 01-.97 0l-.707.707zm0-2.385a1.686 1.686 0 000 2.385l.707-.707a.686.686 0 010-.97l-.707-.708zm3.122-3.122l-3.123 3.122.708.707 3.122-3.122-.707-.707zM7.017 9.405l3.123 3.122.707-.707-3.122-3.122-.708.707zm0-2.384a1.686 1.686 0 000 2.384l.708-.707a.686.686 0 010-.97l-.708-.707zm2.385 0a1.686 1.686 0 00-2.385 0l.708.707a.686.686 0 01.97 0l.707-.707zm3.122 3.122L9.402 7.021l-.707.707 3.122 3.122.707-.707zM14.94 7.02l-3.123 3.123.707.707 3.123-3.123-.707-.707zm2.385 0a1.686 1.686 0 00-2.385 0l.707.707a.686.686 0 01.97 0l.708-.707zm0 2.384a1.686 1.686 0 000-2.384l-.707.707a.686.686 0 010 .97l.707.707zM14.2 12.527l3.124-3.123-.707-.707-3.124 3.123.707.707zm3.123 2.417L14.2 11.82l-.707.707 3.123 3.124.707-.707zm0 2.384a1.686 1.686 0 000-2.384l-.707.707a.686.686 0 010 .97l.707.707z" fill="#164974" fill-opacity=".24" mask="url(#a)"/></svg>