<svg width="125" height="23" fill="none" xmlns="http://www.w3.org/2000/svg"><path d="M4.193.151v21.706H0V.151h4.193zm8.911 6.509v15.197H8.911V6.66h4.193zM12.741.636c.444.424.666.989.666 1.695 0 .696-.222 1.256-.666 1.68-.444.424-1.05.636-1.817.636-.706 0-1.271-.212-1.695-.636-.414-.424-.62-.984-.62-1.68 0-.706.211-1.271.635-1.695.424-.424.984-.636 1.68-.636.767 0 1.373.212 1.817.636zM25.89 21.857h-4.344L15.809 6.66h4.344l3.557 10.081 3.573-10.08h4.329L25.89 21.856zm22.67-6.206H37.556c.162.828.6 1.53 1.317 2.104.717.566 1.62.848 2.71.848.787 0 1.513-.151 2.18-.454.675-.313 1.15-.626 1.422-.939l.439-.469 2.164 2.785-.272.273c-.131.131-.404.348-.817.65a10.26 10.26 0 01-1.317.818c-.464.232-1.07.44-1.817.62a9.515 9.515 0 01-2.285.273c-2.23 0-4.133-.772-5.707-2.316-1.574-1.554-2.361-3.416-2.361-5.585 0-2.17.777-4.027 2.33-5.57 1.555-1.555 3.417-2.332 5.586-2.332 2.17 0 3.976.727 5.42 2.18 1.442 1.443 2.164 3.25 2.164 5.42l-.152 1.694zm-5.191-4.934c-.606-.525-1.353-.787-2.24-.787-.889 0-1.645.257-2.271.772-.616.514-1.05 1.185-1.302 2.013h6.978a3.436 3.436 0 00-1.165-1.998zm17.978-4.208v4.193c-.313-.101-.777-.157-1.393-.167-1.1 0-1.973.348-2.619 1.045-.635.696-.953 1.695-.953 2.997v7.28h-4.178V6.66h4.178v1.862c.12-.141.292-.323.514-.545.222-.232.707-.535 1.453-.908a5.305 5.305 0 012.377-.56h.62zm7.215 4.889c-.736.777-1.105 1.736-1.105 2.876 0 1.13.369 2.084 1.105 2.86.737.768 1.61 1.151 2.619 1.151 1.01 0 1.882-.383 2.619-1.15.736-.777 1.105-1.73 1.105-2.861 0-1.14-.369-2.099-1.105-2.876-.737-.777-1.61-1.166-2.619-1.166-1.01 0-1.882.389-2.619 1.166zm8.265-2.664c1.605 1.574 2.407 3.416 2.407 5.525 0 2.109-.802 3.956-2.407 5.54-1.594 1.574-3.476 2.361-5.646 2.361s-4.057-.787-5.661-2.361c-1.605-1.584-2.407-3.431-2.407-5.54 0-2.11.802-3.95 2.407-5.525 1.604-1.584 3.491-2.377 5.661-2.377 2.17 0 4.052.793 5.646 2.377zm10.395 2.664c-.737.777-1.105 1.736-1.105 2.876 0 1.13.368 2.084 1.105 2.86.736.768 1.61 1.151 2.618 1.151 1.01 0 1.882-.383 2.619-1.15.736-.777 1.105-1.73 1.105-2.861 0-1.14-.368-2.099-1.105-2.876-.737-.777-1.61-1.166-2.619-1.166-1.009 0-1.882.389-2.618 1.166zm8.264-2.664c1.605 1.574 2.407 3.416 2.407 5.525 0 2.109-.802 3.956-2.407 5.54-1.594 1.574-3.476 2.361-5.646 2.361s-4.056-.787-5.66-2.361c-1.605-1.584-2.408-3.431-2.408-5.54 0-2.11.803-3.95 2.407-5.525 1.605-1.584 3.492-2.377 5.661-2.377 2.17 0 4.052.793 5.646 2.377zm24.79 13.123v-8.37c0-.969-.232-1.726-.697-2.27a2.223 2.223 0 00-1.786-.833c-.807 0-1.473.318-1.998.953-.524.626-.787 1.499-.787 2.62v7.9h-4.178v-8.37c0-.969-.237-1.726-.711-2.27-.464-.556-1.055-.833-1.771-.833-.807 0-1.478.318-2.013.953-.525.626-.787 1.499-.787 2.62v7.9h-4.178V6.66h4.178v1.862a4.35 4.35 0 01.469-.59c.212-.243.661-.565 1.347-.97a4.365 4.365 0 012.225-.605c.596 0 1.156.096 1.68.288.525.182.944.399 1.257.65.313.243.58.495.802.758.232.252.388.474.469.666l.121.272a7.24 7.24 0 01.197-.272c.101-.131.308-.343.621-.636.323-.303.666-.57 1.029-.802.363-.242.838-.454 1.423-.636a5.986 5.986 0 011.847-.288c1.675 0 2.997.566 3.965 1.696.979 1.12 1.469 2.775 1.469 4.965v8.84h-4.193z" fill="#28D"/></svg>