<svg width="24" height="24" fill="none" xmlns="http://www.w3.org/2000/svg"><path fill-rule="evenodd" clip-rule="evenodd" d="M12 0C5.373 0 0 5.373 0 12s5.373 12 12 12 12-5.373 12-12S18.627 0 12 0zM8 9.488c.006-2.264 1.795-4.097 4-4.097 2.206 0 3.995 1.833 4 4.097-.005 2.265-1.794 4.098-4 4.098-2.205 0-3.994-1.833-4-4.098zm0 0V9.5v-.021.01zm8 0v-.01.021-.01zm3.248 9.401a.856.856 0 00.155-.976c-.888-1.757-2.675-2.957-4.736-2.957H9.333c-2.06 0-3.848 1.2-4.736 2.958a.856.856 0 00.156.976A9.972 9.972 0 0012 22a9.972 9.972 0 007.248-3.11z" fill="#8598A7"/></svg>